Cutive-Mono-Regular.ufo
<glyph name="dollar" format="1">
  <advance width="1240"/>
  <unicode hex="0024"/>
  <outline>
    <component base="S"/>
    <contour>
      <point x="640" y="1315" type="line" smooth="yes"/>
      <point x="640" y="1334"/>
      <point x="657" y="1344"/>
      <point x="674" y="1344" type="curve" smooth="yes"/>
      <point x="690" y="1344"/>
      <point x="707" y="1334"/>
      <point x="707" y="1315" type="curve" smooth="yes"/>
      <point x="707" y="-141" type="line" smooth="yes"/>
      <point x="707" y="-158"/>
      <point x="690" y="-167"/>
      <point x="674" y="-167" type="curve" smooth="yes"/>
      <point x="657" y="-167"/>
      <point x="640" y="-158"/>
      <point x="640" y="-141" type="curve" smooth="yes"/>
    </contour>
  </outline>
</glyph>
<glyph name="plus" format="1">
  <advance width="1240"/>
  <unicode hex="002b"/>
  <outline>
    <contour>
      <point x="924" y="538" type="line" smooth="yes"/>
      <point x="957" y="538"/>
      <point x="967" y="517"/>
      <point x="967" y="497" type="curve" smooth="yes"/>
      <point x="967" y="476"/>
      <point x="957" y="456"/>
      <point x="924" y="456" type="curve" smooth="yes"/>
      <point x="669" y="456" type="line" smooth="no"/>
      <point x="669" y="195" type="line" smooth="yes"/>
      <point x="669" y="160"/>
      <point x="645" y="143"/>
      <point x="621" y="143" type="curve" smooth="yes"/>
      <point x="597" y="143"/>
      <point x="573" y="160"/>
      <point x="573" y="195" type="curve" smooth="yes"/>
      <point x="573" y="456" type="line" smooth="no"/>
      <point x="316" y="456" type="line" smooth="yes"/>
      <point x="284" y="456"/>
      <point x="273" y="476"/>
      <point x="273" y="497" type="curve" smooth="yes"/>
      <point x="273" y="517"/>
      <point x="284" y="538"/>
      <point x="316" y="538" type="curve" smooth="yes"/>
      <point x="573" y="538" type="line" smooth="no"/>
      <point x="573" y="804" type="line" smooth="yes"/>
      <point x="573" y="839"/>
      <point x="597" y="856"/>
      <point x="621" y="856" type="curve" smooth="yes"/>
      <point x="645" y="856"/>
      <point x="669" y="839"/>
      <point x="669" y="804" type="curve" smooth="yes"/>
      <point x="669" y="538" type="line" smooth="no"/>
    </contour>
  </outline>
</glyph>
<glyph name="hyphen" format="1">
  <advance width="1240"/>
  <unicode hex="002d"/>
  <outline>
    <contour>
      <point x="379" y="500" type="curve" smooth="yes"/>
      <point x="886" y="500" type="line" smooth="yes"/>
      <point x="930" y="500"/>
      <point x="937" y="480"/>
      <point x="937" y="459" type="curve" smooth="yes"/>
      <point x="937" y="439"/>
      <point x="931" y="418"/>
      <point x="886" y="418" type="curve" smooth="yes"/>
      <point x="379" y="418" type="line" smooth="yes"/>
      <point x="334" y="418"/>
      <point x="327" y="439"/>
      <point x="327" y="459" type="curve" smooth="yes"/>
      <point x="327" y="480"/>
      <point x="334" y="500"/>
    </contour>
  </outline>
</glyph>
<glyph name="slash" format="1">
  <advance width="1240"/>
  <unicode hex="002f"/>
  <outline>
    <contour>
      <point x="247" y="-178" type="curve" smooth="yes"/>
      <point x="914" y="1152" type="line" smooth="yes"/>
      <point x="921" y="1166"/>
      <point x="936" y="1173"/>
      <point x="951" y="1173" type="curve" smooth="yes"/>
      <point x="974" y="1173"/>
      <point x="997" y="1158"/>
      <point x="997" y="1134" type="curve" smooth="yes"/>
      <point x="997" y="1128"/>
      <point x="995" y="1121"/>
      <point x="991" y="1113" type="curve" smooth="yes"/>
      <point x="327" y="-213" type="line" smooth="yes"/>
      <point x="318" y="-230"/>
      <point x="304" y="-237"/>
      <point x="290" y="-237" type="curve" smooth="yes"/>
      <point x="267" y="-237"/>
      <point x="243" y="-219"/>
      <point x="243" y="-195" type="curve" smooth="yes"/>
      <point x="243" y="-189"/>
      <point x="244" y="-184"/>
    </contour>
  </outline>
</glyph>
<glyph name="zero" format="1">
  <advance width="1240"/>
  <unicode hex="0030"/>
  <outline>
    <contour>
      <point x="619" y="1187" type="curve" smooth="yes"/>
      <point x="875" y="1187"/>
      <point x="1008" y="885"/>
      <point x="1008" y="584" type="curve" smooth="yes"/>
      <point x="1008" y="284"/>
      <point x="874" y="-16"/>
      <point x="619" y="-16" type="curve" smooth="yes"/>
      <point x="362" y="-16"/>
      <point x="232" y="284"/>
      <point x="232" y="584" type="curve" smooth="yes"/>
      <point x="232" y="885"/>
      <point x="365" y="1187"/>
    </contour>
    <contour>
      <point x="619" y="69" type="curve" smooth="yes"/>
      <point x="815" y="69"/>
      <point x="912" y="325"/>
      <point x="912" y="583" type="curve" smooth="yes"/>
      <point x="912" y="842"/>
      <point x="812" y="1101"/>
      <point x="619" y="1101" type="curve" smooth="yes"/>
      <point x="424" y="1101"/>
      <point x="328" y="842"/>
      <point x="328" y="583" type="curve" smooth="yes"/>
      <point x="328" y="325"/>
      <point x="425" y="69"/>
    </contour>
  </outline>
</glyph>
<glyph name="one" format="1">
  <advance width="1240"/>
  <unicode hex="0031"/>
  <outline>
    <contour>
      <point x="735" y="1130" type="curve" smooth="yes"/>
      <point x="735" y="82" type="line" smooth="no"/>
      <point x="1075" y="82" type="line" smooth="yes"/>
      <point x="1101" y="82"/>
      <point x="1114" y="61"/>
      <point x="1114" y="41" type="curve" smooth="yes"/>
      <point x="1114" y="20"/>
      <point x="1101" y="0"/>
      <point x="1074" y="0" type="curve" smooth="yes"/>
      <point x="274" y="0" type="line" smooth="yes"/>
      <point x="243" y="0"/>
      <point x="228" y="21"/>
      <point x="228" y="42" type="curve" smooth="yes"/>
      <point x="228" y="62"/>
      <point x="242" y="82"/>
      <point x="270" y="82" type="curve" smooth="yes"/>
      <point x="639" y="82" type="line" smooth="no"/>
      <point x="639" y="1069" type="line" smooth="no"/>
      <point x="304" y="917" type="line" smooth="yes"/>
      <point x="298" y="914"/>
      <point x="292" y="913"/>
      <point x="287" y="913" type="curve" smooth="yes"/>
      <point x="263" y="913"/>
      <point x="246" y="936"/>
      <point x="246" y="958" type="curve" smooth="yes"/>
      <point x="246" y="972"/>
      <point x="253" y="986"/>
      <point x="270" y="993" type="curve" smooth="yes"/>
      <point x="674" y="1173" type="line" smooth="yes"/>
      <point x="680" y="1176"/>
      <point x="687" y="1177"/>
      <point x="694" y="1177" type="curve" smooth="yes"/>
      <point x="714" y="1177"/>
      <point x="735" y="1164"/>
    </contour>
  </outline>
</glyph>
<glyph name="five" format="1">
  <advance width="1240"/>
  <unicode hex="0035"/>
  <outline>
    <contour>
      <point x="579" y="-17" type="curve" smooth="yes"/>
      <point x="487" y="-17"/>
      <point x="404" y="10"/>
      <point x="340" y="54" type="curve" smooth="yes"/>
      <point x="320" y="68"/>
      <point x="313" y="84"/>
      <point x="313" y="98" type="curve" smooth="yes"/>
      <point x="313" y="120"/>
      <point x="332" y="138"/>
      <point x="353" y="138" type="curve" smooth="yes"/>
      <point x="361" y="138"/>
      <point x="369" y="136"/>
      <point x="377" y="130" type="curve" smooth="yes"/>
      <point x="444" y="81"/>
      <point x="525" y="65"/>
      <point x="592" y="65" type="curve" smooth="yes"/>
      <point x="739" y="65"/>
      <point x="915" y="170"/>
      <point x="915" y="381" type="curve" smooth="yes"/>
      <point x="915" y="579"/>
      <point x="799" y="657"/>
      <point x="679" y="657" type="curve" smooth="yes"/>
      <point x="577" y="657"/>
      <point x="472" y="601"/>
      <point x="430" y="517" type="curve" smooth="no"/>
      <point x="425" y="502"/>
      <point x="410" y="495"/>
      <point x="395" y="495" type="curve" smooth="yes"/>
      <point x="377" y="495"/>
      <point x="358" y="506"/>
      <point x="358" y="529" type="curve" smooth="yes"/>
      <point x="378" y="1111" type="line" smooth="no"/>
      <point x="378" y="1170"/>
      <point x="448" y="1171"/>
      <point x="514" y="1171" type="curve" smooth="yes"/>
      <point x="838" y="1171" type="line" smooth="no"/>
      <point x="856" y="1242"/>
      <point x="865" y="1260"/>
      <point x="889" y="1260" type="curve" smooth="yes"/>
      <point x="913" y="1260"/>
      <point x="934" y="1250"/>
      <point x="934" y="1227" type="curve" smooth="yes"/>
      <point x="934" y="1150"/>
      <point x="906" y="1089"/>
      <point x="857" y="1089" type="curve" smooth="yes"/>
      <point x="487" y="1089" type="line" smooth="yes"/>
      <point x="481" y="1089"/>
      <point x="479" y="1086"/>
      <point x="479" y="1081" type="curve" smooth="yes"/>
      <point x="444" y="642" type="line" smooth="no"/>
      <point x="521" y="706"/>
      <point x="607" y="735"/>
      <point x="687" y="735" type="curve" smooth="yes"/>
      <point x="861" y="735"/>
      <point x="1011" y="600"/>
      <point x="1011" y="396" type="curve" smooth="yes"/>
      <point x="1011" y="143"/>
      <point x="818" y="-17"/>
    </contour>
  </outline>
</glyph>
<glyph name="seven" format="1">
  <advance width="1240"/>
  <unicode hex="0037"/>
  <outline>
    <contour>
      <point x="569" y="47" type="curve" smooth="yes"/>
      <point x="569" y="475"/>
      <point x="713" y="796"/>
      <point x="864" y="1085" type="curve" smooth="no"/>
      <point x="370" y="1085" type="line" smooth="no"/>
      <point x="370" y="916" type="line" smooth="yes"/>
      <point x="370" y="881"/>
      <point x="345" y="863"/>
      <point x="321" y="863" type="curve" smooth="yes"/>
      <point x="297" y="863"/>
      <point x="274" y="880"/>
      <point x="274" y="916" type="curve" smooth="yes"/>
      <point x="274" y="1117" type="line" smooth="yes"/>
      <point x="274" y="1151"/>
      <point x="297" y="1171"/>
      <point x="330" y="1171" type="curve" smooth="yes"/>
      <point x="928" y="1171" type="line" smooth="yes"/>
      <point x="953" y="1171"/>
      <point x="971" y="1141"/>
      <point x="971" y="1111" type="curve" smooth="yes"/>
      <point x="971" y="1101"/>
      <point x="969" y="1090"/>
      <point x="964" y="1081" type="curve" smooth="yes"/>
      <point x="798" y="761"/>
      <point x="665" y="474"/>
      <point x="665" y="46" type="curve" smooth="yes"/>
      <point x="665" y="10"/>
      <point x="642" y="-7"/>
      <point x="619" y="-7" type="curve" smooth="yes"/>
      <point x="594" y="-7"/>
      <point x="569" y="12"/>
    </contour>
  </outline>
</glyph>
<glyph name="nine" format="1">
  <advance width="1240"/>
  <unicode hex="0039"/>
  <outline>
    <contour>
      <point x="629" y="1105" type="curve" smooth="yes"/>
      <point x="446" y="1105"/>
      <point x="346" y="971"/>
      <point x="346" y="816" type="curve" smooth="yes"/>
      <point x="346" y="660"/>
      <point x="422" y="511"/>
      <point x="606" y="511" type="curve" smooth="yes"/>
      <point x="805" y="511"/>
      <point x="924" y="651"/>
      <point x="924" y="806" type="curve" smooth="yes"/>
      <point x="924" y="963"/>
      <point x="840" y="1105"/>
    </contour>
    <contour>
      <point x="250" y="813" type="curve" smooth="yes"/>
      <point x="250" y="1041"/>
      <point x="403" y="1187"/>
      <point x="629" y="1187" type="curve" smooth="yes"/>
      <point x="896" y="1187"/>
      <point x="1020" y="1010"/>
      <point x="1020" y="744" type="curve" smooth="yes"/>
      <point x="1020" y="364"/>
      <point x="825" y="137"/>
      <point x="616" y="-52" type="curve" smooth="yes"/>
      <point x="607" y="-60"/>
      <point x="597" y="-64"/>
      <point x="588" y="-64" type="curve" smooth="yes"/>
      <point x="564" y="-64"/>
      <point x="542" y="-40"/>
      <point x="542" y="-18" type="curve" smooth="yes"/>
      <point x="542" y="-9"/>
      <point x="546" y="-1"/>
      <point x="554" y="6" type="curve" smooth="yes"/>
      <point x="709" y="135"/>
      <point x="880" y="326"/>
      <point x="916" y="579" type="curve" smooth="no"/>
      <point x="839" y="476"/>
      <point x="718" y="429"/>
      <point x="609" y="429" type="curve" smooth="yes"/>
      <point x="384" y="429"/>
      <point x="250" y="587"/>
    </contour>
  </outline>
</glyph>
<glyph name="semicolon" format="1">
  <advance width="1240"/>
  <unicode hex="003b"/>
  <outline>
    <contour>
      <point x="644" y="600" type="curve" smooth="yes"/>
      <point x="583" y="600"/>
      <point x="539" y="644"/>
      <point x="539" y="705" type="curve" smooth="yes"/>
      <point x="539" y="766"/>
      <point x="584" y="811"/>
      <point x="644" y="811" type="curve" smooth="yes"/>
      <point x="704" y="811"/>
      <point x="750" y="765"/>
      <point x="750" y="705" type="curve" smooth="yes"/>
      <point x="750" y="644"/>
      <point x="704" y="600"/>
    </contour>
    <contour>
      <point x="644" y="180" type="curve" smooth="yes"/>
      <point x="704" y="180"/>
      <point x="756" y="139"/>
      <point x="756" y="59" type="curve" smooth="yes"/>
      <point x="756" y="-57"/>
      <point x="688" y="-130"/>
      <point x="606" y="-172" type="curve" smooth="yes"/>
      <point x="597" y="-177"/>
      <point x="589" y="-178"/>
      <point x="581" y="-178" type="curve" smooth="yes"/>
      <point x="558" y="-178"/>
      <point x="540" y="-160"/>
      <point x="540" y="-142" type="curve" smooth="yes"/>
      <point x="540" y="-132"/>
      <point x="546" y="-120"/>
      <point x="557" y="-112" type="curve" smooth="yes"/>
      <point x="599" y="-84"/>
      <point x="654" y="-49"/>
      <point x="654" y="13" type="curve" smooth="no"/>
      <point x="595" y="13"/>
      <point x="551" y="40"/>
      <point x="551" y="96" type="curve" smooth="yes"/>
      <point x="551" y="152"/>
      <point x="597" y="180"/>
    </contour>
  </outline>
</glyph>
<glyph name="less" format="1">
  <advance width="1240"/>
  <unicode hex="003c"/>
  <outline>
    <contour>
      <point x="87" y="497" type="line" smooth="yes"/>
      <point x="70" y="504"/>
      <point x="61" y="527"/>
      <point x="61" y="550" type="curve" smooth="yes"/>
      <point x="61" y="574"/>
      <point x="71" y="598"/>
      <point x="87" y="605" type="curve" smooth="yes"/>
      <point x="955" y="966" type="line" smooth="yes"/>
      <point x="958" y="967"/>
      <point x="962" y="968"/>
      <point x="965" y="968" type="curve" smooth="yes"/>
      <point x="988" y="968"/>
      <point x="1009" y="939"/>
      <point x="1009" y="914" type="curve" smooth="yes"/>
      <point x="1009" y="900"/>
      <point x="1003" y="888"/>
      <point x="988" y="882" type="curve" smooth="yes"/>
      <point x="179" y="554" type="line" smooth="no"/>
      <point x="998" y="221" type="line" smooth="yes"/>
      <point x="1017" y="213"/>
      <point x="1025" y="199"/>
      <point x="1025" y="183" type="curve" smooth="yes"/>
      <point x="1025" y="158"/>
      <point x="1005" y="132"/>
      <point x="981" y="132" type="curve" smooth="yes"/>
      <point x="976" y="132"/>
      <point x="972" y="133"/>
      <point x="967" y="135" type="curve" smooth="yes"/>
    </contour>
  </outline>
</glyph>
<glyph name="D" format="1">
  <advance width="1240"/>
  <unicode hex="0044"/>
  <outline>
    <contour>
      <point x="1084" y="591" type="curve" smooth="yes"/>
      <point x="1084" y="168"/>
      <point x="874" y="0"/>
      <point x="513" y="0" type="curve" smooth="yes"/>
      <point x="152" y="0" type="line" smooth="yes"/>
      <point x="118" y="0"/>
      <point x="101" y="21"/>
      <point x="101" y="43" type="curve" smooth="yes"/>
      <point x="101" y="64"/>
      <point x="118" y="86"/>
      <point x="151" y="86" type="curve" smooth="yes"/>
      <point x="314" y="86" type="line" smooth="no"/>
      <point x="314" y="1085" type="line" smooth="no"/>
      <point x="155" y="1085" type="line" smooth="yes"/>
      <point x="123" y="1085"/>
      <point x="107" y="1106"/>
      <point x="107" y="1127" type="curve" smooth="yes"/>
      <point x="107" y="1149"/>
      <point x="124" y="1171"/>
      <point x="157" y="1171" type="curve" smooth="yes"/>
      <point x="515" y="1171" type="line" smooth="yes"/>
      <point x="858" y="1171"/>
      <point x="1084" y="993"/>
    </contour>
    <contour>
      <point x="988" y="591" type="curve" smooth="yes"/>
      <point x="988" y="907"/>
      <point x="827" y="1085"/>
      <point x="534" y="1085" type="curve" smooth="yes"/>
      <point x="410" y="1085" type="line" smooth="no"/>
      <point x="410" y="86" type="line" smooth="no"/>
      <point x="520" y="86" type="line" smooth="yes"/>
      <point x="851" y="86"/>
      <point x="988" y="256"/>
    </contour>
  </outline>
</glyph>
<glyph name="F" format="1">
  <advance width="1240"/>
  <unicode hex="0046"/>
  <outline>
    <contour>
      <point x="848" y="437" type="line" smooth="yes"/>
      <point x="848" y="402"/>
      <point x="829" y="386"/>
      <point x="810" y="386" type="curve" smooth="yes"/>
      <point x="791" y="386"/>
      <point x="772" y="401"/>
      <point x="770" y="429" type="curve" smooth="yes"/>
      <point x="757" y="577" type="line" smooth="no"/>
      <point x="420" y="577" type="line" smooth="no"/>
      <point x="420" y="85" type="line" smooth="no"/>
      <point x="770" y="85" type="line" smooth="yes"/>
      <point x="801" y="85"/>
      <point x="816" y="64"/>
      <point x="816" y="43" type="curve" smooth="yes"/>
      <point x="816" y="21"/>
      <point x="800" y="0"/>
      <point x="771" y="0" type="curve" smooth="yes"/>
      <point x="155" y="0" type="line" smooth="yes"/>
      <point x="121" y="0"/>
      <point x="104" y="22"/>
      <point x="104" y="43" type="curve" smooth="yes"/>
      <point x="104" y="64"/>
      <point x="121" y="85"/>
      <point x="154" y="85" type="curve" smooth="yes"/>
      <point x="324" y="85" type="line" smooth="no"/>
      <point x="324" y="1085" type="line" smooth="no"/>
      <point x="189" y="1085" type="line" smooth="yes"/>
      <point x="157" y="1085"/>
      <point x="141" y="1106"/>
      <point x="141" y="1127" type="curve" smooth="yes"/>
      <point x="141" y="1149"/>
      <point x="158" y="1171"/>
      <point x="191" y="1171" type="curve" smooth="yes"/>
      <point x="1082" y="1171" type="line" smooth="yes"/>
      <point x="1115" y="1171"/>
      <point x="1138" y="1151"/>
      <point x="1138" y="1117" type="curve" smooth="yes"/>
      <point x="1138" y="847" type="line" smooth="yes"/>
      <point x="1138" y="817"/>
      <point x="1118" y="803"/>
      <point x="1098" y="803" type="curve" smooth="yes"/>
      <point x="1078" y="803"/>
      <point x="1057" y="816"/>
      <point x="1056" y="841" type="curve" smooth="yes"/>
      <point x="1042" y="1085" type="line" smooth="no"/>
      <point x="420" y="1085" type="line" smooth="no"/>
      <point x="420" y="654" type="line" smooth="no"/>
      <point x="757" y="654" type="line" smooth="no"/>
      <point x="770" y="787" type="line" smooth="yes"/>
      <point x="773" y="817"/>
      <point x="792" y="832"/>
      <point x="810" y="832" type="curve" smooth="yes"/>
      <point x="829" y="832"/>
      <point x="848" y="816"/>
      <point x="848" y="779" type="curve" smooth="yes"/>
    </contour>
  </outline>
</glyph>
<glyph name="M" format="1">
  <advance width="1240"/>
  <unicode hex="004d"/>
  <outline>
    <contour>
      <point x="817" y="0" type="line" smooth="yes"/>
      <point x="783" y="0"/>
      <point x="766" y="22"/>
      <point x="766" y="44" type="curve" smooth="yes"/>
      <point x="766" y="65"/>
      <point x="782" y="86"/>
      <point x="815" y="86" type="curve" smooth="yes"/>
      <point x="948" y="86" type="line" smooth="no"/>
      <point x="948" y="982" type="line" smooth="no"/>
      <point x="691" y="390" type="line" smooth="yes"/>
      <point x="677" y="358"/>
      <point x="651" y="342"/>
      <point x="625" y="342" type="curve" smooth="yes"/>
      <point x="601" y="342"/>
      <point x="578" y="355"/>
      <point x="565" y="385" type="curve" smooth="yes"/>
      <point x="298" y="978" type="line" smooth="no"/>
      <point x="298" y="86" type="line" smooth="no"/>
      <point x="418" y="86" type="line" smooth="yes"/>
      <point x="452" y="86"/>
      <point x="468" y="65"/>
      <point x="468" y="44" type="curve" smooth="yes"/>
      <point x="468" y="22"/>
      <point x="451" y="0"/>
      <point x="417" y="0" type="curve" smooth="yes"/>
      <point x="70" y="0" type="line" smooth="yes"/>
      <point x="37" y="0"/>
      <point x="20" y="21"/>
      <point x="20" y="43" type="curve" smooth="yes"/>
      <point x="20" y="64"/>
      <point x="36" y="86"/>
      <point x="69" y="86" type="curve" smooth="yes"/>
      <point x="202" y="86" type="line" smooth="no"/>
      <point x="202" y="1085" type="line" smooth="no"/>
      <point x="83" y="1085" type="line" smooth="yes"/>
      <point x="50" y="1085"/>
      <point x="34" y="1106"/>
      <point x="34" y="1127" type="curve" smooth="yes"/>
      <point x="34" y="1149"/>
      <point x="51" y="1171"/>
      <point x="84" y="1171" type="curve" smooth="yes"/>
      <point x="282" y="1171" type="line" smooth="yes"/>
      <point x="306" y="1171"/>
      <point x="320" y="1154"/>
      <point x="328" y="1136" type="curve" smooth="yes"/>
      <point x="629" y="473" type="line" smooth="no"/>
      <point x="919" y="1141" type="line" smooth="yes"/>
      <point x="926" y="1158"/>
      <point x="942" y="1171"/>
      <point x="964" y="1171" type="curve" smooth="yes"/>
      <point x="1156" y="1171" type="line" smooth="yes"/>
      <point x="1190" y="1171"/>
      <point x="1207" y="1149"/>
      <point x="1207" y="1127" type="curve" smooth="yes"/>
      <point x="1207" y="1106"/>
      <point x="1190" y="1085"/>
      <point x="1157" y="1085" type="curve" smooth="yes"/>
      <point x="1044" y="1085" type="line" smooth="no"/>
      <point x="1044" y="86" type="line" smooth="no"/>
      <point x="1172" y="86" type="line" smooth="yes"/>
      <point x="1204" y="86"/>
      <point x="1220" y="65"/>
      <point x="1220" y="44" type="curve" smooth="yes"/>
      <point x="1220" y="22"/>
      <point x="1203" y="0"/>
      <point x="1170" y="0" type="curve" smooth="yes"/>
    </contour>
  </outline>
</glyph>
<glyph name="Q" format="1">
  <advance width="1240"/>
  <unicode hex="0051"/>
  <outline>
    <contour>
      <point x="620" y="1101" type="curve" smooth="yes"/>
      <point x="344" y="1101"/>
      <point x="204" y="842"/>
      <point x="204" y="582" type="curve" smooth="yes"/>
      <point x="204" y="326"/>
      <point x="340" y="69"/>
      <point x="620" y="69" type="curve" smooth="yes"/>
      <point x="900" y="69"/>
      <point x="1036" y="326"/>
      <point x="1036" y="582" type="curve" smooth="yes"/>
      <point x="1036" y="842"/>
      <point x="896" y="1101"/>
    </contour>
    <contour>
      <point x="506" y="-5" type="curve" smooth="no"/>
      <point x="541" y="-13"/>
      <point x="580" y="-17"/>
      <point x="620" y="-17" type="curve" smooth="yes"/>
      <point x="636" y="-17" type="line" smooth="no"/>
      <point x="722" y="-108" type="line" smooth="yes"/>
      <point x="753" y="-142"/>
      <point x="790" y="-162"/>
      <point x="836" y="-162" type="curve" smooth="yes"/>
      <point x="882" y="-162"/>
      <point x="938" y="-142"/>
      <point x="1008" y="-95" type="curve" smooth="yes"/>
      <point x="1018" y="-88"/>
      <point x="1028" y="-86"/>
      <point x="1037" y="-86" type="curve" smooth="yes"/>
      <point x="1059" y="-86"/>
      <point x="1077" y="-108"/>
      <point x="1077" y="-130" type="curve" smooth="yes"/>
      <point x="1077" y="-144"/>
      <point x="1070" y="-159"/>
      <point x="1054" y="-169" type="curve" smooth="no"/>
      <point x="1002" y="-218"/>
      <point x="901" y="-246"/>
      <point x="854" y="-246" type="curve" smooth="yes"/>
      <point x="696" y="-246"/>
      <point x="646" y="-177"/>
    </contour>
    <contour>
      <point x="506" y="-5" type="curve" smooth="no"/>
      <point x="241" y="53"/>
      <point x="108" y="316"/>
      <point x="108" y="582" type="curve" smooth="yes"/>
      <point x="108" y="883"/>
      <point x="279" y="1187"/>
      <point x="620" y="1187" type="curve" smooth="yes"/>
      <point x="961" y="1187"/>
      <point x="1132" y="883"/>
      <point x="1132" y="582" type="curve" smooth="yes"/>
      <point x="1132" y="286"/>
      <point x="967" y="-8"/>
      <point x="636" y="-17" type="curve" smooth="no"/>
      <point x="617" y="3" type="line" smooth="no"/>
      <point x="504" y="-2" type="line" smooth="no"/>
      <point x="505" y="-3"/>
      <point x="505" y="-4"/>
    </contour>
  </outline>
</glyph>
<glyph name="T" format="1">
  <advance width="1240"/>
  <unicode hex="0054"/>
  <outline>
    <contour>
      <point x="210" y="814" type="line" smooth="yes"/>
      <point x="208" y="783"/>
      <point x="189" y="769"/>
      <point x="169" y="769" type="curve" smooth="yes"/>
      <point x="145" y="769"/>
      <point x="120" y="788"/>
      <point x="120" y="823" type="curve" smooth="yes"/>
      <point x="120" y="1117" type="line" smooth="yes"/>
      <point x="120" y="1153"/>
      <point x="131" y="1171"/>
      <point x="162" y="1171" type="curve" smooth="yes"/>
      <point x="1078" y="1171" type="line" smooth="yes"/>
      <point x="1107" y="1171"/>
      <point x="1118" y="1152"/>
      <point x="1118" y="1117" type="curve" smooth="yes"/>
      <point x="1118" y="823" type="line" smooth="yes"/>
      <point x="1118" y="788"/>
      <point x="1095" y="771"/>
      <point x="1072" y="771" type="curve" smooth="yes"/>
      <point x="1051" y="771"/>
      <point x="1030" y="786"/>
      <point x="1028" y="814" type="curve" smooth="yes"/>
      <point x="1018" y="1085" type="line" smooth="no"/>
      <point x="666" y="1085" type="line" smooth="no"/>
      <point x="666" y="86" type="line" smooth="no"/>
      <point x="908" y="86" type="line" smooth="yes"/>
      <point x="940" y="86"/>
      <point x="957" y="65"/>
      <point x="957" y="44" type="curve" smooth="yes"/>
      <point x="957" y="22"/>
      <point x="939" y="0"/>
      <point x="906" y="0" type="curve" smooth="yes"/>
      <point x="330" y="0" type="line" smooth="yes"/>
      <point x="296" y="0"/>
      <point x="278" y="22"/>
      <point x="278" y="44" type="curve" smooth="yes"/>
      <point x="278" y="65"/>
      <point x="295" y="86"/>
      <point x="328" y="86" type="curve" smooth="yes"/>
      <point x="570" y="86" type="line" smooth="no"/>
      <point x="570" y="1085" type="line" smooth="no"/>
      <point x="222" y="1085" type="line" smooth="no"/>
    </contour>
  </outline>
</glyph>
<glyph name="W" format="1">
  <advance width="1240"/>
  <unicode hex="0057"/>
  <outline>
    <contour>
      <point x="873" y="1085" type="line" smooth="yes"/>
      <point x="840" y="1085"/>
      <point x="823" y="1107"/>
      <point x="823" y="1129" type="curve" smooth="yes"/>
      <point x="823" y="1150"/>
      <point x="839" y="1171"/>
      <point x="872" y="1171" type="curve" smooth="yes"/>
      <point x="1151" y="1171" type="line" smooth="yes"/>
      <point x="1184" y="1171"/>
      <point x="1201" y="1150"/>
      <point x="1201" y="1129" type="curve" smooth="yes"/>
      <point x="1201" y="1107"/>
      <point x="1184" y="1085"/>
      <point x="1150" y="1085" type="curve" smooth="yes"/>
      <point x="1080" y="1085" type="line" smooth="no"/>
      <point x="916" y="27" type="line" smooth="yes"/>
      <point x="911" y="-3"/>
      <point x="889" y="-17"/>
      <point x="864" y="-17" type="curve" smooth="yes"/>
      <point x="843" y="-17"/>
      <point x="820" y="1"/>
      <point x="811" y="35" type="curve" smooth="yes"/>
      <point x="641" y="701" type="line" smooth="no"/>
      <point x="454" y="27" type="line" smooth="yes"/>
      <point x="446" y="-3"/>
      <point x="425" y="-17"/>
      <point x="403" y="-17" type="curve" smooth="yes"/>
      <point x="379" y="-17"/>
      <point x="355" y="1"/>
      <point x="351" y="35" type="curve" smooth="no"/>
      <point x="185" y="1085" type="line" smooth="no"/>
      <point x="101" y="1085" type="line" smooth="yes"/>
      <point x="68" y="1085"/>
      <point x="51" y="1107"/>
      <point x="51" y="1129" type="curve" smooth="yes"/>
      <point x="51" y="1150"/>
      <point x="67" y="1171"/>
      <point x="100" y="1171" type="curve" smooth="yes"/>
      <point x="402" y="1171" type="line" smooth="yes"/>
      <point x="435" y="1171"/>
      <point x="451" y="1150"/>
      <point x="451" y="1129" type="curve" smooth="yes"/>
      <point x="451" y="1107"/>
      <point x="434" y="1085"/>
      <point x="400" y="1085" type="curve" smooth="yes"/>
      <point x="286" y="1085" type="line" smooth="no"/>
      <point x="424" y="199" type="line" smooth="no"/>
      <point x="601" y="850" type="line" smooth="yes"/>
      <point x="607" y="874"/>
      <point x="627" y="886"/>
      <point x="646" y="886" type="curve" smooth="yes"/>
      <point x="665" y="886"/>
      <point x="683" y="874"/>
      <point x="689" y="850" type="curve" smooth="yes"/>
      <point x="858" y="196" type="line" smooth="no"/>
      <point x="980" y="1085" type="line" smooth="no"/>
    </contour>
  </outline>
</glyph>
<glyph name="c" format="1">
  <advance width="1240"/>
  <unicode hex="0063"/>
  <outline>
    <contour>
      <point x="635" y="813" type="curve" smooth="yes"/>
      <point x="833" y="813"/>
      <point x="979" y="744"/>
      <point x="979" y="564" type="curve" smooth="yes"/>
      <point x="979" y="519"/>
      <point x="960" y="484"/>
      <point x="919" y="484" type="curve" smooth="yes"/>
      <point x="871" y="484"/>
      <point x="868" y="564"/>
      <point x="853" y="686" type="curve" smooth="no"/>
      <point x="782" y="721"/>
      <point x="717" y="731"/>
      <point x="650" y="731" type="curve" smooth="yes"/>
      <point x="416" y="731"/>
      <point x="279" y="609"/>
      <point x="279" y="407" type="curve" smooth="yes"/>
      <point x="279" y="175"/>
      <point x="421" y="65"/>
      <point x="624" y="65" type="curve" smooth="yes"/>
      <point x="751" y="65"/>
      <point x="823" y="99"/>
      <point x="902" y="172" type="curve" smooth="yes"/>
      <point x="914" y="183"/>
      <point x="930" y="188"/>
      <point x="943" y="188" type="curve" smooth="yes"/>
      <point x="962" y="188"/>
      <point x="978" y="176"/>
      <point x="978" y="147" type="curve" smooth="yes"/>
      <point x="978" y="133"/>
      <point x="972" y="118"/>
      <point x="960" y="105" type="curve" smooth="yes"/>
      <point x="886" y="25"/>
      <point x="736" y="-17"/>
      <point x="632" y="-17" type="curve" smooth="yes"/>
      <point x="365" y="-17"/>
      <point x="183" y="141"/>
      <point x="183" y="407" type="curve" smooth="yes"/>
      <point x="183" y="663"/>
      <point x="387" y="813"/>
    </contour>
  </outline>
</glyph>
<glyph name="g" format="1">
  <advance width="1240"/>
  <unicode hex="0067"/>
  <outline>
    <contour>
      <point x="828" y="534" type="curve" smooth="yes"/>
      <point x="828" y="679"/>
      <point x="719" y="731"/>
      <point x="597" y="731" type="curve" smooth="yes"/>
      <point x="474" y="731"/>
      <point x="372" y="676"/>
      <point x="372" y="542" type="curve" smooth="yes"/>
      <point x="372" y="420"/>
      <point x="470" y="361"/>
      <point x="591" y="361" type="curve" smooth="yes"/>
      <point x="713" y="361"/>
      <point x="828" y="397"/>
    </contour>
    <contour>
      <point x="460" y="37" type="line" smooth="no"/>
      <point x="421" y="22"/>
      <point x="374" y="-65"/>
      <point x="374" y="-122" type="curve" smooth="yes"/>
      <point x="374" y="-238"/>
      <point x="447" y="-268"/>
      <point x="583" y="-268" type="curve" smooth="yes"/>
      <point x="725" y="-268"/>
      <point x="898" y="-232"/>
      <point x="898" y="-118" type="curve" smooth="yes"/>
      <point x="898" y="4"/>
      <point x="837" y="37"/>
      <point x="644" y="37" type="curve" smooth="yes"/>
    </contour>
    <contour>
      <point x="548" y="109" type="curve" smooth="yes"/>
      <point x="641" y="109" type="line" smooth="yes"/>
      <point x="866" y="109"/>
      <point x="994" y="75"/>
      <point x="994" y="-114" type="curve" smooth="yes"/>
      <point x="994" y="-278"/>
      <point x="789" y="-350"/>
      <point x="585" y="-350" type="curve" smooth="yes"/>
      <point x="428" y="-350"/>
      <point x="278" y="-306"/>
      <point x="278" y="-147" type="curve" smooth="yes"/>
      <point x="278" y="-47"/>
      <point x="331" y="25"/>
      <point x="397" y="58" type="curve" smooth="no"/>
      <point x="337" y="87"/>
      <point x="303" y="123"/>
      <point x="303" y="185" type="curve" smooth="yes"/>
      <point x="303" y="262"/>
      <point x="393" y="324"/>
      <point x="448" y="331" type="curve" smooth="no"/>
      <point x="344" y="374"/>
      <point x="276" y="428"/>
      <point x="276" y="545" type="curve" smooth="yes"/>
      <point x="276" y="729"/>
      <point x="427" y="813"/>
      <point x="599" y="813" type="curve" smooth="yes"/>
      <point x="687" y="813"/>
      <point x="774" y="787"/>
      <point x="838" y="734" type="curve" smooth="no"/>
      <point x="990" y="835" type="line" smooth="yes"/>
      <point x="1036" y="866"/>
      <point x="1078" y="877"/>
      <point x="1111" y="877" type="curve" smooth="yes"/>
      <point x="1159" y="877"/>
      <point x="1169" y="851"/>
      <point x="1169" y="826" type="curve" smooth="yes"/>
      <point x="1169" y="798"/>
      <point x="1136" y="775"/>
      <point x="1036" y="775" type="curve" smooth="no"/>
      <point x="867" y="701" type="line" smooth="no"/>
      <point x="903" y="656"/>
      <point x="924" y="603"/>
      <point x="924" y="540" type="curve" smooth="yes"/>
      <point x="924" y="362"/>
      <point x="809" y="287"/>
      <point x="588" y="287" type="curve" smooth="yes"/>
      <point x="485" y="287"/>
      <point x="399" y="244"/>
      <point x="399" y="190" type="curve" smooth="yes"/>
      <point x="399" y="146"/>
      <point x="417" y="109"/>
    </contour>
  </outline>
</glyph>
<glyph name="i" format="1">
  <advance width="1240"/>
  <unicode hex="0069"/>
  <outline>
    <contour>
      <point x="295" y="0" type="line" smooth="yes"/>
      <point x="264" y="0"/>
      <point x="249" y="22"/>
      <point x="249" y="43" type="curve" smooth="yes"/>
      <point x="249" y="63"/>
      <point x="263" y="82"/>
      <point x="291" y="82" type="curve" smooth="yes"/>
      <point x="663" y="82" type="line" smooth="no"/>
      <point x="663" y="719" type="line" smooth="no"/>
      <point x="330" y="674" type="line" smooth="yes"/>
      <point x="327" y="674"/>
      <point x="325" y="673"/>
      <point x="323" y="673" type="curve" smooth="yes"/>
      <point x="296" y="673"/>
      <point x="282" y="694"/>
      <point x="282" y="715" type="curve" smooth="yes"/>
      <point x="282" y="734"/>
      <point x="292" y="752"/>
      <point x="314" y="755" type="curve" smooth="yes"/>
      <point x="712" y="810" type="line" smooth="yes"/>
      <point x="715" y="811"/>
      <point x="718" y="811"/>
      <point x="723" y="811" type="curve" smooth="yes"/>
      <point x="744" y="811"/>
      <point x="759" y="799"/>
      <point x="759" y="779" type="curve" smooth="yes"/>
      <point x="759" y="82" type="line" smooth="no"/>
      <point x="1092" y="82" type="line" smooth="yes"/>
      <point x="1119" y="82"/>
      <point x="1132" y="61"/>
      <point x="1132" y="41" type="curve" smooth="yes"/>
      <point x="1132" y="20"/>
      <point x="1118" y="0"/>
      <point x="1091" y="0" type="curve" smooth="yes"/>
    </contour>
    <contour>
      <point x="692" y="1171" type="curve" smooth="yes"/>
      <point x="738" y="1171"/>
      <point x="774" y="1134"/>
      <point x="774" y="1088" type="curve" smooth="yes"/>
      <point x="774" y="1042"/>
      <point x="738" y="1006"/>
      <point x="692" y="1006" type="curve" smooth="yes"/>
      <point x="646" y="1006"/>
      <point x="609" y="1042"/>
      <point x="609" y="1088" type="curve" smooth="yes"/>
      <point x="609" y="1134"/>
      <point x="646" y="1171"/>
    </contour>
  </outline>
</glyph>
<glyph name="j" format="1">
  <advance width="1240"/>
  <unicode hex="006a"/>
  <outline>
    <contour>
      <point x="802" y="1171" type="curve" smooth="yes"/>
      <point x="848" y="1171"/>
      <point x="884" y="1134"/>
      <point x="884" y="1088" type="curve" smooth="yes"/>
      <point x="884" y="1042"/>
      <point x="848" y="1006"/>
      <point x="802" y="1006" type="curve" smooth="yes"/>
      <point x="756" y="1006"/>
      <point x="719" y="1042"/>
      <point x="719" y="1088" type="curve" smooth="yes"/>
      <point x="719" y="1134"/>
      <point x="756" y="1171"/>
    </contour>
    <contour>
      <point x="367" y="-310" type="curve" smooth="yes"/>
      <point x="334" y="-310"/>
      <point x="316" y="-288"/>
      <point x="316" y="-266" type="curve" smooth="yes"/>
      <point x="316" y="-244"/>
      <point x="335" y="-221"/>
      <point x="374" y="-221" type="curve" smooth="yes"/>
      <point x="549" y="-221"/>
      <point x="799" y="-156"/>
      <point x="799" y="-1" type="curve" smooth="yes"/>
      <point x="799" y="731" type="line" smooth="no"/>
      <point x="343" y="731" type="line" smooth="yes"/>
      <point x="314" y="731"/>
      <point x="299" y="753"/>
      <point x="299" y="774" type="curve" smooth="yes"/>
      <point x="299" y="794"/>
      <point x="313" y="813"/>
      <point x="339" y="813" type="curve" smooth="yes"/>
      <point x="859" y="813" type="line" smooth="yes"/>
      <point x="879" y="813"/>
      <point x="895" y="805"/>
      <point x="895" y="784" type="curve" smooth="yes"/>
      <point x="895" y="-11" type="line" smooth="yes"/>
      <point x="895" y="-199"/>
      <point x="612" y="-310"/>
    </contour>
  </outline>
</glyph>
<glyph name="l" format="1">
  <advance width="1240"/>
  <unicode hex="006c"/>
  <outline>
    <contour>
      <point x="719" y="1150" type="curve" smooth="yes"/>
      <point x="719" y="82" type="line" smooth="no"/>
      <point x="1059" y="82" type="line" smooth="yes"/>
      <point x="1085" y="82"/>
      <point x="1098" y="61"/>
      <point x="1098" y="41" type="curve" smooth="yes"/>
      <point x="1098" y="20"/>
      <point x="1085" y="0"/>
      <point x="1058" y="0" type="curve" smooth="yes"/>
      <point x="258" y="0" type="line" smooth="yes"/>
      <point x="227" y="0"/>
      <point x="212" y="21"/>
      <point x="212" y="42" type="curve" smooth="yes"/>
      <point x="212" y="62"/>
      <point x="226" y="82"/>
      <point x="254" y="82" type="curve" smooth="yes"/>
      <point x="623" y="82" type="line" smooth="no"/>
      <point x="623" y="1090" type="line" smooth="no"/>
      <point x="270" y="1062" type="line" smooth="yes"/>
      <point x="267" y="1062"/>
      <point x="265" y="1061"/>
      <point x="263" y="1061" type="curve" smooth="yes"/>
      <point x="236" y="1061"/>
      <point x="222" y="1082"/>
      <point x="222" y="1103" type="curve" smooth="yes"/>
      <point x="222" y="1122"/>
      <point x="232" y="1140"/>
      <point x="254" y="1143" type="curve" smooth="yes"/>
      <point x="672" y="1181" type="line" smooth="yes"/>
      <point x="675" y="1181"/>
      <point x="678" y="1182"/>
      <point x="683" y="1182" type="curve" smooth="yes"/>
      <point x="704" y="1182"/>
      <point x="719" y="1170"/>
    </contour>
  </outline>
</glyph>
<glyph name="braceleft" format="1">
  <advance width="1240"/>
  <unicode hex="007b"/>
  <outline>
    <contour>
      <point x="657" y="658" type="curve" smooth="yes"/>
      <point x="657" y="597"/>
      <point x="656" y="543"/>
      <point x="568" y="526" type="curve" smooth="no"/>
      <point x="656" y="506"/>
      <point x="657" y="446"/>
      <point x="657" y="385" type="curve" smooth="yes"/>
      <point x="657" y="256"/>
      <point x="597" y="103"/>
      <point x="597" y="-15" type="curve" smooth="yes"/>
      <point x="597" y="-113"/>
      <point x="663" y="-143"/>
      <point x="860" y="-143" type="curve" smooth="yes"/>
      <point x="879" y="-143"/>
      <point x="888" y="-164"/>
      <point x="888" y="-185" type="curve" smooth="yes"/>
      <point x="888" y="-206"/>
      <point x="879" y="-227"/>
      <point x="860" y="-227" type="curve" smooth="yes"/>
      <point x="538" y="-227"/>
      <point x="502" y="-147"/>
      <point x="502" y="8" type="curve" smooth="yes"/>
      <point x="502" y="151"/>
      <point x="564" y="269"/>
      <point x="564" y="385" type="curve" smooth="yes"/>
      <point x="564" y="435"/>
      <point x="539" y="467"/>
      <point x="441" y="467" type="curve" smooth="yes"/>
      <point x="411" y="467"/>
      <point x="394" y="498"/>
      <point x="394" y="529" type="curve" smooth="yes"/>
      <point x="394" y="557"/>
      <point x="408" y="585"/>
      <point x="441" y="585" type="curve" smooth="yes"/>
      <point x="539" y="585"/>
      <point x="564" y="607"/>
      <point x="564" y="657" type="curve" smooth="yes"/>
      <point x="564" y="773"/>
      <point x="502" y="891"/>
      <point x="502" y="1034" type="curve" smooth="yes"/>
      <point x="502" y="1189"/>
      <point x="538" y="1270"/>
      <point x="860" y="1270" type="curve" smooth="yes"/>
      <point x="879" y="1270"/>
      <point x="888" y="1249"/>
      <point x="888" y="1228" type="curve" smooth="yes"/>
      <point x="888" y="1207"/>
      <point x="879" y="1186"/>
      <point x="860" y="1186" type="curve" smooth="yes"/>
      <point x="663" y="1186"/>
      <point x="597" y="1156"/>
      <point x="597" y="1058" type="curve" smooth="yes"/>
      <point x="597" y="940"/>
      <point x="657" y="787"/>
    </contour>
  </outline>
</glyph>
<glyph name="bar" format="1">
  <advance width="1240"/>
  <unicode hex="007c"/>
  <outline>
    <contour>
      <point x="701" y="1257" type="curve" smooth="yes"/>
      <point x="734" y="1257"/>
      <point x="756" y="1239"/>
      <point x="759" y="1208" type="curve" smooth="no"/>
      <point x="759" y="-67" type="line" smooth="yes"/>
      <point x="759" y="-96"/>
      <point x="726" y="-112"/>
      <point x="699" y="-112" type="curve" smooth="yes"/>
      <point x="663" y="-112"/>
      <point x="639" y="-97"/>
      <point x="639" y="-56" type="curve" smooth="yes"/>
      <point x="639" y="1208" type="line" smooth="yes"/>
      <point x="639" y="1241"/>
      <point x="670" y="1257"/>
    </contour>
  </outline>
</glyph>
<glyph name="braceright" format="1">
  <advance width="1240"/>
  <unicode hex="007d"/>
  <outline>
    <contour>
      <point x="614" y="385" type="curve" smooth="yes"/>
      <point x="614" y="446"/>
      <point x="615" y="500"/>
      <point x="703" y="517" type="curve" smooth="no"/>
      <point x="615" y="537"/>
      <point x="614" y="597"/>
      <point x="614" y="658" type="curve" smooth="yes"/>
      <point x="614" y="787"/>
      <point x="674" y="940"/>
      <point x="674" y="1058" type="curve" smooth="yes"/>
      <point x="674" y="1156"/>
      <point x="608" y="1186"/>
      <point x="411" y="1186" type="curve" smooth="yes"/>
      <point x="392" y="1186"/>
      <point x="383" y="1207"/>
      <point x="383" y="1228" type="curve" smooth="yes"/>
      <point x="383" y="1249"/>
      <point x="392" y="1270"/>
      <point x="411" y="1270" type="curve" smooth="yes"/>
      <point x="733" y="1270"/>
      <point x="769" y="1190"/>
      <point x="769" y="1035" type="curve" smooth="yes"/>
      <point x="769" y="892"/>
      <point x="707" y="774"/>
      <point x="707" y="658" type="curve" smooth="yes"/>
      <point x="707" y="608"/>
      <point x="732" y="576"/>
      <point x="830" y="576" type="curve" smooth="yes"/>
      <point x="860" y="576"/>
      <point x="877" y="545"/>
      <point x="877" y="514" type="curve" smooth="yes"/>
      <point x="877" y="486"/>
      <point x="863" y="458"/>
      <point x="830" y="458" type="curve" smooth="yes"/>
      <point x="732" y="458"/>
      <point x="707" y="436"/>
      <point x="707" y="386" type="curve" smooth="yes"/>
      <point x="707" y="270"/>
      <point x="769" y="152"/>
      <point x="769" y="9" type="curve" smooth="yes"/>
      <point x="769" y="-146"/>
      <point x="733" y="-227"/>
      <point x="411" y="-227" type="curve" smooth="yes"/>
      <point x="392" y="-227"/>
      <point x="383" y="-206"/>
      <point x="383" y="-185" type="curve" smooth="yes"/>
      <point x="383" y="-164"/>
      <point x="392" y="-143"/>
      <point x="411" y="-143" type="curve" smooth="yes"/>
      <point x="608" y="-143"/>
      <point x="674" y="-113"/>
      <point x="674" y="-15" type="curve" smooth="yes"/>
      <point x="674" y="103"/>
      <point x="614" y="256"/>
    </contour>
  </outline>
</glyph>
<glyph name="asciitilde" format="1">
  <advance width="1240"/>
  <unicode hex="007e"/>
  <outline>
    <contour>
      <point x="350" y="727" type="curve" smooth="yes"/>
      <point x="350" y="840"/>
      <point x="418" y="922"/>
      <point x="501" y="922" type="curve" smooth="yes"/>
      <point x="665" y="922"/>
      <point x="787" y="798"/>
      <point x="846" y="798" type="curve" smooth="yes"/>
      <point x="943" y="798"/>
      <point x="946" y="908"/>
      <point x="998" y="908" type="curve" smooth="yes"/>
      <point x="1025" y="908"/>
      <point x="1048" y="897"/>
      <point x="1048" y="872" type="curve" smooth="yes"/>
      <point x="1048" y="758"/>
      <point x="970" y="678"/>
      <point x="872" y="678" type="curve" smooth="yes"/>
      <point x="739" y="678"/>
      <point x="609" y="801"/>
      <point x="521" y="801" type="curve" smooth="yes"/>
      <point x="440" y="801"/>
      <point x="440" y="691"/>
      <point x="400" y="691" type="curve" smooth="yes"/>
      <point x="374" y="691"/>
      <point x="350" y="702"/>
    </contour>
  </outline>
</glyph>
<glyph name="cent" format="1">
  <advance width="1240"/>
  <unicode hex="00a2"/>
  <outline>
    <component base="c"/>
    <contour>
      <point x="634" y="990" type="curve" smooth="yes"/>
      <point x="659" y="990"/>
      <point x="660" y="978"/>
      <point x="660" y="956" type="curve" smooth="yes"/>
      <point x="660" y="951" type="line" smooth="yes"/>
      <point x="660" y="-189" type="line" smooth="yes"/>
      <point x="660" y="-216"/>
      <point x="657" y="-236"/>
      <point x="634" y="-236" type="curve" smooth="yes"/>
      <point x="610" y="-236"/>
      <point x="607" y="-222"/>
      <point x="607" y="-190" type="curve" smooth="yes"/>
      <point x="607" y="951" type="line" smooth="yes"/>
      <point x="607" y="977"/>
      <point x="610" y="990"/>
    </contour>
  </outline>
</glyph>
<glyph name="sterling" format="1">
  <advance width="1240"/>
  <unicode hex="00a3"/>
  <outline>
    <contour>
      <point x="404" y="48" type="curve" smooth="yes"/>
      <point x="439" y="48"/>
      <point x="483" y="67"/>
      <point x="531" y="116" type="curve" smooth="no"/>
      <point x="474" y="171"/>
      <point x="429" y="191"/>
      <point x="396" y="191" type="curve" smooth="yes"/>
      <point x="354" y="191"/>
      <point x="331" y="159"/>
      <point x="329" y="128" type="curve" smooth="no"/>
      <point x="329" y="122" type="line" smooth="yes"/>
      <point x="329" y="81"/>
      <point x="358" y="48"/>
    </contour>
    <contour>
      <point x="250" y="130" type="curve" smooth="yes"/>
      <point x="250" y="199"/>
      <point x="310" y="251"/>
      <point x="390" y="251" type="curve" smooth="yes"/>
      <point x="446" y="251"/>
      <point x="512" y="225"/>
      <point x="574" y="161" type="curve" smooth="no"/>
      <point x="582" y="176"/>
      <point x="586" y="199"/>
      <point x="586" y="229" type="curve" smooth="yes"/>
      <point x="586" y="335"/>
      <point x="537" y="515"/>
      <point x="456" y="618" type="curve" smooth="no"/>
      <point x="287" y="618" type="line" smooth="yes"/>
      <point x="271" y="618"/>
      <point x="262" y="638"/>
      <point x="262" y="658" type="curve" smooth="yes"/>
      <point x="262" y="677"/>
      <point x="269" y="695"/>
      <point x="285" y="695" type="curve" smooth="yes"/>
      <point x="427" y="695" type="line" smooth="no"/>
      <point x="398" y="764"/>
      <point x="353" y="824"/>
      <point x="353" y="921" type="curve" smooth="yes"/>
      <point x="353" y="1079"/>
      <point x="491" y="1184"/>
      <point x="649" y="1184" type="curve" smooth="yes"/>
      <point x="767" y="1184"/>
      <point x="855" y="1171"/>
      <point x="911" y="1104" type="curve" smooth="yes"/>
      <point x="926" y="1086"/>
      <point x="933" y="1079"/>
      <point x="933" y="1053" type="curve" smooth="yes"/>
      <point x="933" y="1007"/>
      <point x="893" y="977"/>
      <point x="849" y="977" type="curve" smooth="yes"/>
      <point x="798" y="977"/>
      <point x="800" y="1121"/>
      <point x="651" y="1121" type="curve" smooth="yes"/>
      <point x="558" y="1121"/>
      <point x="458" y="1062"/>
      <point x="458" y="923" type="curve" smooth="yes"/>
      <point x="458" y="840"/>
      <point x="491" y="762"/>
      <point x="522" y="695" type="curve" smooth="no"/>
      <point x="757" y="695" type="line" smooth="yes"/>
      <point x="773" y="695"/>
      <point x="781" y="676"/>
      <point x="781" y="657" type="curve" smooth="yes"/>
      <point x="781" y="638"/>
      <point x="772" y="618"/>
      <point x="756" y="618" type="curve" smooth="yes"/>
      <point x="551" y="618" type="line" smooth="no"/>
      <point x="569" y="567"/>
      <point x="674" y="420"/>
      <point x="674" y="263" type="curve" smooth="yes"/>
      <point x="674" y="218"/>
      <point x="666" y="172"/>
      <point x="644" y="128" type="curve" smooth="no"/>
      <point x="720" y="67"/>
      <point x="784" y="53"/>
      <point x="872" y="53" type="curve" smooth="yes"/>
      <point x="898" y="53"/>
      <point x="934" y="139"/>
      <point x="995" y="139" type="curve" smooth="yes"/>
      <point x="1022" y="139"/>
      <point x="1047" y="110"/>
      <point x="1047" y="82" type="curve" smooth="yes"/>
      <point x="1047" y="-10"/>
      <point x="941" y="-17"/>
      <point x="848" y="-17" type="curve" smooth="yes"/>
      <point x="735" y="-17"/>
      <point x="678" y="12"/>
      <point x="587" y="72" type="curve" smooth="no"/>
      <point x="523" y="11"/>
      <point x="454" y="-16"/>
      <point x="395" y="-16" type="curve" smooth="yes"/>
      <point x="313" y="-16"/>
      <point x="250" y="39"/>
    </contour>
  </outline>
</glyph>
<glyph name="yen" format="1">
  <advance width="1240"/>
  <unicode hex="00a5"/>
  <outline>
    <contour>
      <point x="956" y="578" type="line" smooth="yes"/>
      <point x="989" y="578"/>
      <point x="995" y="560"/>
      <point x="995" y="542" type="curve" smooth="yes"/>
      <point x="995" y="524"/>
      <point x="989" y="506"/>
      <point x="956" y="506" type="curve" smooth="yes"/>
      <point x="689" y="506" type="line" smooth="no"/>
      <point x="689" y="369" type="line" smooth="no"/>
      <point x="956" y="369" type="line" smooth="yes"/>
      <point x="989" y="369"/>
      <point x="995" y="351"/>
      <point x="995" y="333" type="curve" smooth="yes"/>
      <point x="995" y="315"/>
      <point x="989" y="297"/>
      <point x="956" y="297" type="curve" smooth="yes"/>
      <point x="689" y="297" type="line" smooth="no"/>
      <point x="689" y="86" type="line" smooth="no"/>
      <point x="921" y="86" type="line" smooth="yes"/>
      <point x="953" y="86"/>
      <point x="969" y="65"/>
      <point x="969" y="44" type="curve" smooth="yes"/>
      <point x="969" y="22"/>
      <point x="952" y="0"/>
      <point x="919" y="0" type="curve" smooth="yes"/>
      <point x="334" y="0" type="line" smooth="yes"/>
      <point x="300" y="0"/>
      <point x="282" y="22"/>
      <point x="282" y="44" type="curve" smooth="yes"/>
      <point x="282" y="65"/>
      <point x="299" y="86"/>
      <point x="332" y="86" type="curve" smooth="yes"/>
      <point x="593" y="86" type="line" smooth="no"/>
      <point x="593" y="297" type="line" smooth="no"/>
      <point x="318" y="297" type="line" smooth="yes"/>
      <point x="285" y="297"/>
      <point x="279" y="315"/>
      <point x="279" y="333" type="curve" smooth="yes"/>
      <point x="279" y="351"/>
      <point x="285" y="369"/>
      <point x="318" y="369" type="curve" smooth="yes"/>
      <point x="593" y="369" type="line" smooth="no"/>
      <point x="593" y="506" type="line" smooth="no"/>
      <point x="318" y="506" type="line" smooth="yes"/>
      <point x="285" y="506"/>
      <point x="279" y="524"/>
      <point x="279" y="542" type="curve" smooth="yes"/>
      <point x="279" y="560"/>
      <point x="285" y="578"/>
      <point x="318" y="578" type="curve" smooth="yes"/>
      <point x="578" y="578" type="line" smooth="no"/>
      <point x="258" y="1095" type="line" smooth="no"/>
      <point x="174" y="1095" type="line" smooth="yes"/>
      <point x="141" y="1095"/>
      <point x="124" y="1114"/>
      <point x="124" y="1133" type="curve" smooth="yes"/>
      <point x="124" y="1152"/>
      <point x="142" y="1171"/>
      <point x="175" y="1171" type="curve" smooth="yes"/>
      <point x="505" y="1171" type="line" smooth="yes"/>
      <point x="539" y="1171"/>
      <point x="556" y="1152"/>
      <point x="556" y="1133" type="curve" smooth="yes"/>
      <point x="556" y="1114"/>
      <point x="539" y="1095"/>
      <point x="506" y="1095" type="curve" smooth="yes"/>
      <point x="370" y="1095" type="line" smooth="no"/>
      <point x="646" y="633" type="line" smooth="no"/>
      <point x="914" y="1095" type="line" smooth="no"/>
      <point x="803" y="1095" type="line" smooth="yes"/>
      <point x="770" y="1095"/>
      <point x="753" y="1114"/>
      <point x="753" y="1133" type="curve" smooth="yes"/>
      <point x="753" y="1152"/>
      <point x="771" y="1171"/>
      <point x="804" y="1171" type="curve" smooth="yes"/>
      <point x="1065" y="1171" type="line" smooth="yes"/>
      <point x="1099" y="1171"/>
      <point x="1116" y="1151"/>
      <point x="1116" y="1132" type="curve" smooth="yes"/>
      <point x="1116" y="1113"/>
      <point x="1100" y="1095"/>
      <point x="1067" y="1095" type="curve" smooth="yes"/>
      <point x="1012" y="1095" type="line" smooth="no"/>
      <point x="707" y="578" type="line" smooth="no"/>
    </contour>
  </outline>
</glyph>
<glyph name="logicalnot" format="1">
  <advance width="1240"/>
  <unicode hex="00ac"/>
  <outline>
    <contour>
      <point x="300.506" y="546" type="curve" smooth="yes"/>
      <point x="857.506" y="546" type="line" smooth="yes"/>
      <point x="895.506" y="546"/>
      <point x="917.506" y="526"/>
      <point x="917.506" y="488" type="curve" smooth="yes"/>
      <point x="917.506" y="214" type="line" smooth="yes"/>
      <point x="917.506" y="176.627"/>
      <point x="892.282" y="157.861"/>
      <point x="867.561" y="157.861" type="curve" smooth="yes"/>
      <point x="843.802" y="157.861"/>
      <point x="820.506" y="175.193"/>
      <point x="820.506" y="210" type="curve" smooth="yes"/>
      <point x="820.506" y="460" type="line" smooth="no"/>
      <point x="300.506" y="460" type="line" smooth="yes"/>
      <point x="264.019" y="460"/>
      <point x="252.494" y="480.907"/>
      <point x="252.494" y="502.104" type="curve" smooth="yes"/>
      <point x="252.494" y="523.899"/>
      <point x="265.02" y="546"/>
    </contour>
  </outline>
</glyph>
<glyph name="macron" format="1">
  <advance width="1240"/>
  <unicode hex="00af"/>
  <outline>
    <contour>
      <point x="883" y="1033" type="curve" smooth="yes"/>
      <point x="521" y="1033" type="line" smooth="yes"/>
      <point x="483" y="1033"/>
      <point x="470" y="1049"/>
      <point x="470" y="1076" type="curve" smooth="yes"/>
      <point x="470" y="1103"/>
      <point x="486" y="1119"/>
      <point x="520" y="1119" type="curve" smooth="yes"/>
      <point x="881" y="1119" type="line" smooth="yes"/>
      <point x="914" y="1119"/>
      <point x="930" y="1103"/>
      <point x="930" y="1076" type="curve" smooth="yes"/>
      <point x="930" y="1049"/>
      <point x="916" y="1033"/>
    </contour>
  </outline>
</glyph>
<glyph name="uni00B3" format="1">
  <advance width="1240"/>
  <unicode hex="00b3"/>
  <outline>
    <contour>
      <point x="564" y="790" type="curve" smooth="yes"/>
      <point x="547" y="790"/>
      <point x="536" y="800"/>
      <point x="536" y="818" type="curve" smooth="yes"/>
      <point x="536" y="828"/>
      <point x="543" y="839"/>
      <point x="558" y="848" type="curve" smooth="yes"/>
      <point x="665" y="914"/>
      <point x="753" y="951"/>
      <point x="753" y="1032" type="curve" smooth="yes"/>
      <point x="753" y="1079"/>
      <point x="719" y="1124"/>
      <point x="638" y="1124" type="curve" smooth="yes"/>
      <point x="489" y="1124"/>
      <point x="532" y="1059"/>
      <point x="460" y="1059" type="curve" smooth="yes"/>
      <point x="440" y="1059"/>
      <point x="430" y="1072"/>
      <point x="430" y="1084" type="curve" smooth="yes"/>
      <point x="430" y="1152"/>
      <point x="571" y="1187"/>
      <point x="640" y="1187" type="curve" smooth="yes"/>
      <point x="742" y="1187"/>
      <point x="823" y="1131"/>
      <point x="823" y="1032" type="curve" smooth="yes"/>
      <point x="823" y="931"/>
      <point x="712" y="871"/>
      <point x="659" y="845" type="curve" smooth="no"/>
      <point x="794" y="840"/>
      <point x="868" y="753"/>
      <point x="868" y="633" type="curve" smooth="yes"/>
      <point x="868" y="484"/>
      <point x="746" y="378"/>
      <point x="592" y="378" type="curve" smooth="yes"/>
      <point x="501" y="378"/>
      <point x="400" y="420"/>
      <point x="400" y="465" type="curve" smooth="yes"/>
      <point x="400" y="474"/>
      <point x="412" y="490"/>
      <point x="429" y="490" type="curve" smooth="yes"/>
      <point x="490" y="490"/>
      <point x="481" y="442"/>
      <point x="594" y="442" type="curve" smooth="yes"/>
      <point x="720" y="442"/>
      <point x="798" y="525"/>
      <point x="798" y="637" type="curve" smooth="yes"/>
      <point x="798" y="736"/>
      <point x="733" y="796"/>
      <point x="631" y="796" type="curve" smooth="yes"/>
      <point x="612" y="796"/>
      <point x="573" y="790"/>
    </contour>
  </outline>
</glyph>
<glyph name="acute" format="1">
  <advance width="1240"/>
  <unicode hex="00b4"/>
  <outline>
    <contour>
      <point x="858" y="1216" type="curve" smooth="yes"/>
      <point x="536" y="982" type="line" smooth="yes"/>
      <point x="533" y="979"/>
      <point x="529" y="978"/>
      <point x="525" y="978" type="curve" smooth="yes"/>
      <point x="513" y="978"/>
      <point x="501" y="988"/>
      <point x="501" y="1000" type="curve" smooth="yes"/>
      <point x="501" y="1005"/>
      <point x="503" y="1010"/>
      <point x="508" y="1015" type="curve" smooth="yes"/>
      <point x="779" y="1291" type="line" smooth="yes"/>
      <point x="789" y="1301"/>
      <point x="799" y="1305"/>
      <point x="810" y="1305" type="curve" smooth="yes"/>
      <point x="841" y="1305"/>
      <point x="872" y="1272"/>
      <point x="872" y="1244" type="curve" smooth="yes"/>
      <point x="872" y="1234"/>
      <point x="868" y="1223"/>
    </contour>
  </outline>
</glyph>
<glyph name="periodcentered" format="1">
  <advance width="1240"/>
  <unicode hex="00b7"/>
  <outline>
    <contour>
      <point x="699" y="680" type="curve" smooth="yes"/>
      <point x="745" y="680"/>
      <point x="781" y="643"/>
      <point x="781" y="597" type="curve" smooth="yes"/>
      <point x="781" y="551"/>
      <point x="745" y="515"/>
      <point x="699" y="515" type="curve" smooth="yes"/>
      <point x="653" y="515"/>
      <point x="616" y="551"/>
      <point x="616" y="597" type="curve" smooth="yes"/>
      <point x="616" y="643"/>
      <point x="653" y="680"/>
    </contour>
  </outline>
</glyph>
<glyph name="ordmasculine" format="1">
  <advance width="1240"/>
  <unicode hex="00ba"/>
  <outline>
    <contour>
      <point x="702" y="-20" type="curve" smooth="yes"/>
      <point x="535" y="-20"/>
      <point x="421" y="87"/>
      <point x="421" y="255" type="curve" smooth="yes"/>
      <point x="421" y="424"/>
      <point x="535" y="529"/>
      <point x="702" y="529" type="curve" smooth="yes"/>
      <point x="867" y="529"/>
      <point x="977" y="420"/>
      <point x="977" y="255" type="curve" smooth="yes"/>
      <point x="977" y="89"/>
      <point x="867" y="-20"/>
    </contour>
    <contour>
      <point x="702" y="451" type="curve" smooth="yes"/>
      <point x="587" y="451"/>
      <point x="522" y="370"/>
      <point x="522" y="255" type="curve" smooth="yes"/>
      <point x="522" y="139"/>
      <point x="587" y="57"/>
      <point x="702" y="57" type="curve" smooth="yes"/>
      <point x="815" y="57"/>
      <point x="878" y="142"/>
      <point x="878" y="255" type="curve" smooth="yes"/>
      <point x="878" y="368"/>
      <point x="815" y="451"/>
    </contour>
  </outline>
</glyph>
<glyph name="guillemotright" format="1">
  <advance width="1240"/>
  <unicode hex="00bb"/>
  <outline>
    <contour>
      <point x="634" y="831" type="curve" smooth="yes"/>
      <point x="978" y="572" type="line" smooth="yes"/>
      <point x="1003" y="553"/>
      <point x="1016" y="535"/>
      <point x="1016" y="517" type="curve" smooth="yes"/>
      <point x="1016" y="499"/>
      <point x="1003" y="480"/>
      <point x="978" y="461" type="curve" smooth="yes"/>
      <point x="644" y="206" type="line" smooth="yes"/>
      <point x="634" y="199"/>
      <point x="624" y="195"/>
      <point x="614" y="195" type="curve" smooth="yes"/>
      <point x="592" y="195"/>
      <point x="574" y="211"/>
      <point x="574" y="231" type="curve" smooth="yes"/>
      <point x="574" y="243"/>
      <point x="581" y="257"/>
      <point x="598" y="270" type="curve" smooth="yes"/>
      <point x="919" y="516" type="line" smooth="no"/>
      <point x="589" y="760" type="line" smooth="yes"/>
      <point x="567" y="776"/>
      <point x="558" y="794"/>
      <point x="558" y="809" type="curve" smooth="yes"/>
      <point x="558" y="829"/>
      <point x="574" y="845"/>
      <point x="596" y="845" type="curve" smooth="yes"/>
      <point x="607" y="845"/>
      <point x="621" y="841"/>
    </contour>
    <contour>
      <point x="270" y="831" type="curve" smooth="yes"/>
      <point x="614" y="572" type="line" smooth="yes"/>
      <point x="639" y="553"/>
      <point x="652" y="535"/>
      <point x="652" y="517" type="curve" smooth="yes"/>
      <point x="652" y="499"/>
      <point x="639" y="480"/>
      <point x="614" y="461" type="curve" smooth="yes"/>
      <point x="280" y="206" type="line" smooth="yes"/>
      <point x="270" y="199"/>
      <point x="260" y="195"/>
      <point x="250" y="195" type="curve" smooth="yes"/>
      <point x="228" y="195"/>
      <point x="210" y="211"/>
      <point x="210" y="231" type="curve" smooth="yes"/>
      <point x="210" y="243"/>
      <point x="217" y="257"/>
      <point x="234" y="270" type="curve" smooth="yes"/>
      <point x="555" y="516" type="line" smooth="no"/>
      <point x="225" y="760" type="line" smooth="yes"/>
      <point x="203" y="776"/>
      <point x="194" y="794"/>
      <point x="194" y="809" type="curve" smooth="yes"/>
      <point x="194" y="829"/>
      <point x="210" y="845"/>
      <point x="232" y="845" type="curve" smooth="yes"/>
      <point x="243" y="845"/>
      <point x="257" y="841"/>
    </contour>
  </outline>
</glyph>
<glyph name="multiply" format="1">
  <advance width="1240"/>
  <unicode hex="00d7"/>
  <outline>
    <contour>
      <point x="919" y="757" type="curve" smooth="yes"/>
      <point x="946" y="757"/>
      <point x="969" y="733"/>
      <point x="969" y="707" type="curve" smooth="yes"/>
      <point x="969" y="694"/>
      <point x="964" y="681"/>
      <point x="954" y="671" type="curve" smooth="yes"/>
      <point x="770" y="488" type="line" smooth="no"/>
      <point x="954" y="303" type="line" smooth="yes"/>
      <point x="964" y="293"/>
      <point x="969" y="280"/>
      <point x="969" y="268" type="curve" smooth="yes"/>
      <point x="969" y="241"/>
      <point x="946" y="218"/>
      <point x="919" y="218" type="curve" smooth="yes"/>
      <point x="906" y="218"/>
      <point x="893" y="223"/>
      <point x="883" y="233" type="curve" smooth="yes"/>
      <point x="699" y="417" type="line" smooth="no"/>
      <point x="516" y="233" type="line" smooth="yes"/>
      <point x="506" y="223"/>
      <point x="493" y="218"/>
      <point x="480" y="218" type="curve" smooth="yes"/>
      <point x="453" y="218"/>
      <point x="430" y="241"/>
      <point x="430" y="268" type="curve" smooth="yes"/>
      <point x="430" y="280"/>
      <point x="435" y="293"/>
      <point x="445" y="303" type="curve" smooth="yes"/>
      <point x="628" y="488" type="line" smooth="no"/>
      <point x="445" y="671" type="line" smooth="yes"/>
      <point x="435" y="681"/>
      <point x="430" y="694"/>
      <point x="430" y="707" type="curve" smooth="yes"/>
      <point x="430" y="733"/>
      <point x="453" y="757"/>
      <point x="480" y="757" type="curve" smooth="yes"/>
      <point x="493" y="757"/>
      <point x="506" y="752"/>
      <point x="516" y="742" type="curve" smooth="yes"/>
      <point x="699" y="558" type="line" smooth="no"/>
      <point x="883" y="742" type="line" smooth="yes"/>
      <point x="893" y="752"/>
      <point x="906" y="757"/>
    </contour>
  </outline>
</glyph>
<glyph name="Oslash" format="1">
  <advance width="1240"/>
  <unicode hex="00d8"/>
  <outline>
    <component base="O"/>
    <contour>
      <point x="295" y="-172" type="line" smooth="yes"/>
      <point x="288" y="-187"/>
      <point x="277" y="-192"/>
      <point x="265" y="-192" type="curve" smooth="yes"/>
      <point x="246" y="-192"/>
      <point x="226" y="-176"/>
      <point x="226" y="-158" type="curve" smooth="yes"/>
      <point x="226" y="-154"/>
      <point x="227" y="-150"/>
      <point x="229" y="-146" type="curve" smooth="yes"/>
      <point x="972" y="1305" type="line" smooth="yes"/>
      <point x="978" y="1316"/>
      <point x="988" y="1321"/>
      <point x="999" y="1321" type="curve" smooth="yes"/>
      <point x="1017" y="1321"/>
      <point x="1037" y="1308"/>
      <point x="1037" y="1289" type="curve" smooth="yes"/>
      <point x="1037" y="1284"/>
      <point x="1036" y="1279"/>
      <point x="1033" y="1274" type="curve" smooth="yes"/>
    </contour>
  </outline>
</glyph>
<glyph name="germandbls" format="1">
  <advance width="1240"/>
  <unicode hex="00df"/>
  <outline>
    <contour>
      <point x="928" y="894" type="curve" smooth="yes"/>
      <point x="928" y="760"/>
      <point x="817" y="670"/>
      <point x="725" y="643" type="curve" smooth="no"/>
      <point x="882" y="612"/>
      <point x="1052" y="530"/>
      <point x="1052" y="318" type="curve" smooth="yes"/>
      <point x="1052" y="124"/>
      <point x="922" y="30"/>
      <point x="724" y="0" type="curve" smooth="yes"/>
      <point x="719" y="-1"/>
      <point x="714" y="-1"/>
      <point x="710" y="-1" type="curve" smooth="yes"/>
      <point x="680" y="-1"/>
      <point x="663" y="17"/>
      <point x="663" y="44" type="curve" smooth="yes"/>
      <point x="663" y="73"/>
      <point x="682" y="75"/>
      <point x="724" y="82" type="curve" smooth="yes"/>
      <point x="839" y="100"/>
      <point x="954" y="151"/>
      <point x="954" y="320" type="curve" smooth="yes"/>
      <point x="954" y="522"/>
      <point x="762" y="591"/>
      <point x="579" y="591" type="curve" smooth="yes"/>
      <point x="547" y="591"/>
      <point x="532" y="614"/>
      <point x="532" y="636" type="curve" smooth="yes"/>
      <point x="532" y="658"/>
      <point x="546" y="677"/>
      <point x="579" y="677" type="curve" smooth="yes"/>
      <point x="686" y="677"/>
      <point x="835" y="744"/>
      <point x="835" y="898" type="curve" smooth="yes"/>
      <point x="835" y="1030"/>
      <point x="746" y="1106"/>
      <point x="619" y="1106" type="curve" smooth="yes"/>
      <point x="476" y="1106"/>
      <point x="370" y="1011"/>
      <point x="370" y="706" type="curve" smooth="yes"/>
      <point x="370" y="82" type="line" smooth="no"/>
      <point x="526" y="82" type="line" smooth="yes"/>
      <point x="561" y="82"/>
      <point x="575" y="72"/>
      <point x="575" y="38" type="curve" smooth="yes"/>
      <point x="575" y="8"/>
      <point x="556" y="0"/>
      <point x="524" y="0" type="curve" smooth="yes"/>
      <point x="145" y="0" type="line" smooth="yes"/>
      <point x="113" y="0"/>
      <point x="94" y="8"/>
      <point x="94" y="38" type="curve" smooth="yes"/>
      <point x="94" y="72"/>
      <point x="108" y="82"/>
      <point x="143" y="82" type="curve" smooth="yes"/>
      <point x="274" y="82" type="line" smooth="no"/>
      <point x="274" y="700" type="line" smooth="yes"/>
      <point x="274" y="1085"/>
      <point x="438" y="1188"/>
      <point x="614" y="1188" type="curve" smooth="yes"/>
      <point x="781" y="1188"/>
      <point x="928" y="1083"/>
    </contour>
  </outline>
</glyph>
<glyph name="oslash" format="1">
  <advance width="1240"/>
  <unicode hex="00f8"/>
  <outline>
    <component base="o"/>
    <contour>
      <point x="410" y="-121" type="line" smooth="yes"/>
      <point x="404" y="-134"/>
      <point x="396" y="-142"/>
      <point x="380" y="-142" type="curve" smooth="yes"/>
      <point x="360" y="-142"/>
      <point x="347" y="-129"/>
      <point x="347" y="-108" type="curve" smooth="yes"/>
      <point x="347" y="-103"/>
      <point x="348" y="-99"/>
      <point x="350" y="-95" type="curve" smooth="yes"/>
      <point x="834" y="917" type="line" smooth="yes"/>
      <point x="839" y="929"/>
      <point x="848" y="934"/>
      <point x="861" y="934" type="curve" smooth="yes"/>
      <point x="881" y="934"/>
      <point x="894" y="922"/>
      <point x="894" y="900" type="curve" smooth="yes"/>
      <point x="894" y="896"/>
      <point x="893" y="892"/>
      <point x="891" y="888" type="curve" smooth="yes"/>
    </contour>
  </outline>
</glyph>
<glyph name="dcroat" format="1">
  <advance width="1240"/>
  <unicode hex="0111"/>
  <outline>
    <component base="d"/>
    <contour>
      <point x="1023" y="907" type="curve" smooth="yes"/>
      <point x="661" y="907" type="line" smooth="yes"/>
      <point x="623" y="907"/>
      <point x="610" y="917"/>
      <point x="610" y="944" type="curve" smooth="yes"/>
      <point x="610" y="971"/>
      <point x="626" y="979"/>
      <point x="660" y="979" type="curve" smooth="yes"/>
      <point x="1021" y="979" type="line" smooth="yes"/>
      <point x="1054" y="979"/>
      <point x="1070" y="971"/>
      <point x="1070" y="944" type="curve" smooth="yes"/>
      <point x="1070" y="917"/>
      <point x="1056" y="907"/>
    </contour>
  </outline>
</glyph>
<glyph name="oe" format="1">
  <advance width="1240"/>
  <unicode hex="0153"/>
  <outline>
    <contour>
      <point x="1128" y="479" type="curve" smooth="yes"/>
      <point x="1128" y="429"/>
      <point x="1098" y="392"/>
      <point x="1051" y="392" type="curve" smooth="yes"/>
      <point x="675" y="387" type="line" smooth="no"/>
      <point x="682" y="171"/>
      <point x="780" y="61"/>
      <point x="890" y="61" type="curve" smooth="yes"/>
      <point x="951" y="61"/>
      <point x="1015" y="94"/>
      <point x="1071" y="162" type="curve" smooth="yes"/>
      <point x="1077" y="169"/>
      <point x="1085" y="172"/>
      <point x="1094" y="172" type="curve" smooth="yes"/>
      <point x="1113" y="172"/>
      <point x="1136" y="158"/>
      <point x="1136" y="137" type="curve" smooth="yes"/>
      <point x="1136" y="128"/>
      <point x="1131" y="117"/>
      <point x="1121" y="105" type="curve" smooth="yes"/>
      <point x="1045" y="21"/>
      <point x="963" y="-10"/>
      <point x="886" y="-10" type="curve" smooth="yes"/>
      <point x="775" y="-10"/>
      <point x="677" y="45"/>
      <point x="631" y="205" type="curve" smooth="no"/>
      <point x="581" y="49"/>
      <point x="477" y="-10"/>
      <point x="378" y="-10" type="curve" smooth="yes"/>
      <point x="238" y="-10"/>
      <point x="99" y="126"/>
      <point x="99" y="398" type="curve" smooth="yes"/>
      <point x="99" y="671"/>
      <point x="241" y="807"/>
      <point x="383" y="807" type="curve" smooth="yes"/>
      <point x="482" y="807"/>
      <point x="588" y="750"/>
      <point x="629" y="587" type="curve" smooth="no"/>
      <point x="676" y="751"/>
      <point x="782" y="812"/>
      <point x="882" y="812" type="curve" smooth="yes"/>
      <point x="1005" y="812"/>
      <point x="1128" y="705"/>
    </contour>
    <contour>
      <point x="678" y="456" type="curve" smooth="no"/>
      <point x="1043" y="460" type="line" smooth="no"/>
      <point x="1043" y="637"/>
      <point x="960" y="732"/>
      <point x="877" y="732" type="curve" smooth="yes"/>
      <point x="794" y="732"/>
      <point x="711" y="637"/>
    </contour>
    <contour>
      <point x="579" y="398" type="curve" smooth="yes"/>
      <point x="579" y="615"/>
      <point x="486" y="723"/>
      <point x="393" y="723" type="curve" smooth="yes"/>
      <point x="300" y="723"/>
      <point x="207" y="615"/>
      <point x="207" y="398" type="curve" smooth="yes"/>
      <point x="207" y="181"/>
      <point x="300" y="72"/>
      <point x="393" y="72" type="curve" smooth="yes"/>
      <point x="486" y="72"/>
      <point x="579" y="181"/>
    </contour>
  </outline>
</glyph>
<glyph name="tbar" format="1">
  <advance width="1240"/>
  <unicode hex="0167"/>
  <outline>
    <component base="t"/>
    <contour>
      <point x="765" y="504" type="line" smooth="yes"/>
      <point x="798" y="504"/>
      <point x="804" y="486"/>
      <point x="804" y="467" type="curve" smooth="yes"/>
      <point x="804" y="448"/>
      <point x="796" y="428"/>
      <point x="763" y="428" type="curve" smooth="yes"/>
      <point x="320" y="428" type="line" smooth="yes"/>
      <point x="283" y="428"/>
      <point x="274" y="448"/>
      <point x="274" y="467" type="curve" smooth="yes"/>
      <point x="274" y="486"/>
      <point x="281" y="504"/>
      <point x="316" y="504" type="curve" smooth="yes"/>
    </contour>
  </outline>
</glyph>
<glyph name="uni01CB" format="1">
  <advance width="1240"/>
  <unicode hex="01cb"/>
  <outline>
    <contour>
      <point x="1052" y="1171" type="curve" smooth="yes"/>
      <point x="1098" y="1171"/>
      <point x="1134" y="1134"/>
      <point x="1134" y="1088" type="curve" smooth="yes"/>
      <point x="1134" y="1042"/>
      <point x="1098" y="1006"/>
      <point x="1052" y="1006" type="curve" smooth="yes"/>
      <point x="1006" y="1006"/>
      <point x="969" y="1042"/>
      <point x="969" y="1088" type="curve" smooth="yes"/>
      <point x="969" y="1134"/>
      <point x="1006" y="1171"/>
    </contour>
    <contour>
      <point x="748" y="-309" type="curve" smooth="yes"/>
      <point x="715" y="-309"/>
      <point x="697" y="-287"/>
      <point x="697" y="-265" type="curve" smooth="yes"/>
      <point x="697" y="-243"/>
      <point x="716" y="-220"/>
      <point x="755" y="-220" type="curve" smooth="yes"/>
      <point x="930" y="-220"/>
      <point x="1040" y="-155"/>
      <point x="1040" y="0" type="curve" smooth="yes"/>
      <point x="1040" y="732" type="line" smooth="no"/>
      <point x="854" y="732" type="line" smooth="yes"/>
      <point x="825" y="732"/>
      <point x="810" y="754"/>
      <point x="810" y="775" type="curve" smooth="yes"/>
      <point x="810" y="795"/>
      <point x="824" y="814"/>
      <point x="850" y="814" type="curve" smooth="yes"/>
      <point x="1100" y="814" type="line" smooth="yes"/>
      <point x="1120" y="814"/>
      <point x="1136" y="806"/>
      <point x="1136" y="785" type="curve" smooth="yes"/>
      <point x="1136" y="-10" type="line" smooth="yes"/>
      <point x="1136" y="-198"/>
      <point x="993" y="-309"/>
    </contour>
    <contour>
      <point x="79" y="1085" type="line" smooth="yes"/>
      <point x="46" y="1085"/>
      <point x="30" y="1106"/>
      <point x="30" y="1127" type="curve" smooth="yes"/>
      <point x="30" y="1149"/>
      <point x="47" y="1171"/>
      <point x="80" y="1171" type="curve" smooth="yes"/>
      <point x="292" y="1171" type="line" smooth="yes"/>
      <point x="314" y="1171"/>
      <point x="326" y="1164"/>
      <point x="332" y="1147" type="curve" smooth="yes"/>
      <point x="643" y="282" type="line" smooth="no"/>
      <point x="643" y="1085" type="line" smooth="no"/>
      <point x="564" y="1085" type="line" smooth="yes"/>
      <point x="531" y="1085"/>
      <point x="515" y="1106"/>
      <point x="515" y="1127" type="curve" smooth="yes"/>
      <point x="515" y="1149"/>
      <point x="532" y="1171"/>
      <point x="566" y="1171" type="curve" smooth="yes"/>
      <point x="793" y="1171" type="line" smooth="yes"/>
      <point x="826" y="1171"/>
      <point x="843" y="1149"/>
      <point x="843" y="1127" type="curve" smooth="yes"/>
      <point x="843" y="1106"/>
      <point x="827" y="1085"/>
      <point x="795" y="1085" type="curve" smooth="yes"/>
      <point x="739" y="1085" type="line" smooth="no"/>
      <point x="739" y="47" type="line" smooth="yes"/>
      <point x="739" y="4"/>
      <point x="716" y="-16"/>
      <point x="690" y="-16" type="curve" smooth="yes"/>
      <point x="669" y="-16"/>
      <point x="643" y="-3"/>
      <point x="634" y="22" type="curve" smooth="yes"/>
      <point x="261" y="1064" type="line" smooth="no"/>
      <point x="261" y="86" type="line" smooth="no"/>
      <point x="329" y="86" type="line" smooth="yes"/>
      <point x="362" y="86"/>
      <point x="378" y="64"/>
      <point x="378" y="43" type="curve" smooth="yes"/>
      <point x="378" y="21"/>
      <point x="361" y="0"/>
      <point x="328" y="0" type="curve" smooth="yes"/>
      <point x="100" y="0" type="line" smooth="yes"/>
      <point x="67" y="0"/>
      <point x="50" y="21"/>
      <point x="50" y="43" type="curve" smooth="yes"/>
      <point x="50" y="64"/>
      <point x="66" y="86"/>
      <point x="99" y="86" type="curve" smooth="yes"/>
      <point x="165" y="86" type="line" smooth="no"/>
      <point x="165" y="1085" type="line" smooth="no"/>
    </contour>
  </outline>
</glyph>
<glyph name="uni01F3" format="1">
  <advance width="1240"/>
  <unicode hex="01f3"/>
  <outline>
    <contour>
      <point x="497" y="47" type="curve" smooth="yes"/>
      <point x="494" y="107" type="line" smooth="no"/>
      <point x="441" y="22"/>
      <point x="373" y="-16"/>
      <point x="310" y="-16" type="curve" smooth="yes"/>
      <point x="177" y="-16"/>
      <point x="63" y="153"/>
      <point x="63" y="398" type="curve" smooth="yes"/>
      <point x="63" y="651"/>
      <point x="164" y="813"/>
      <point x="299" y="813" type="curve" smooth="yes"/>
      <point x="358" y="813"/>
      <point x="426" y="782"/>
      <point x="485" y="714" type="curve" smooth="no"/>
      <point x="485" y="1091" type="line" smooth="no"/>
      <point x="357" y="1083" type="line" smooth="yes"/>
      <point x="350" y="1082"/>
      <point x="343" y="1080"/>
      <point x="337" y="1080" type="curve" smooth="yes"/>
      <point x="313" y="1080"/>
      <point x="298" y="1098"/>
      <point x="298" y="1118" type="curve" smooth="yes"/>
      <point x="298" y="1134"/>
      <point x="307" y="1154"/>
      <point x="331" y="1159" type="curve" smooth="no"/>
      <point x="520" y="1178" type="line" smooth="yes"/>
      <point x="528" y="1179"/>
      <point x="534" y="1180"/>
      <point x="540" y="1180" type="curve" smooth="yes"/>
      <point x="569" y="1180"/>
      <point x="581" y="1164"/>
      <point x="581" y="1141" type="curve" smooth="yes"/>
      <point x="581" y="85" type="line" smooth="no"/>
      <point x="637" y="91" type="line" smooth="no"/>
      <point x="643" y="91" type="line" smooth="yes"/>
      <point x="671" y="91"/>
      <point x="683" y="74"/>
      <point x="683" y="56" type="curve" smooth="yes"/>
      <point x="683" y="37"/>
      <point x="670" y="17"/>
      <point x="645" y="12" type="curve" smooth="no"/>
      <point x="551" y="-3" type="line" smooth="no"/>
      <point x="544" y="-3" type="line" smooth="yes"/>
      <point x="518" y="-3"/>
      <point x="499" y="13"/>
    </contour>
    <contour>
      <point x="159" y="398" type="curve" smooth="yes"/>
      <point x="159" y="186"/>
      <point x="226" y="60"/>
      <point x="318" y="60" type="curve" smooth="yes"/>
      <point x="374" y="60"/>
      <point x="438" y="107"/>
      <point x="485" y="210" type="curve" smooth="no"/>
      <point x="485" y="619" type="line" smooth="no"/>
      <point x="424" y="698"/>
      <point x="361" y="735"/>
      <point x="309" y="735" type="curve" smooth="yes"/>
      <point x="213" y="735"/>
      <point x="159" y="610"/>
    </contour>
    <contour>
      <point x="1089" y="772" type="line" smooth="yes"/>
      <point x="1135" y="772"/>
      <point x="1150" y="750"/>
      <point x="1150" y="727" type="curve" smooth="yes"/>
      <point x="1150" y="710"/>
      <point x="1138" y="695"/>
      <point x="1132" y="682" type="curve" smooth="yes"/>
      <point x="860" y="82" type="line" smooth="no"/>
      <point x="1065" y="82" type="line" smooth="no"/>
      <point x="1076" y="259" type="line" smooth="yes"/>
      <point x="1077" y="283"/>
      <point x="1099" y="297"/>
      <point x="1120" y="297" type="curve" smooth="yes"/>
      <point x="1141" y="297"/>
      <point x="1161" y="284"/>
      <point x="1161" y="255" type="curve" smooth="yes"/>
      <point x="1161" y="46" type="line" smooth="yes"/>
      <point x="1161" y="21"/>
      <point x="1134" y="0"/>
      <point x="1110" y="0" type="curve" smooth="yes"/>
      <point x="806" y="0" type="line" smooth="yes"/>
      <point x="768" y="0"/>
      <point x="750" y="24"/>
      <point x="750" y="59" type="curve" smooth="yes"/>
      <point x="750" y="81"/>
      <point x="761" y="97"/>
      <point x="767" y="109" type="curve" smooth="yes"/>
      <point x="1034" y="692" type="line" smooth="no"/>
      <point x="831" y="692" type="line" smooth="no"/>
      <point x="823" y="535" type="line" smooth="yes"/>
      <point x="822" y="505"/>
      <point x="802" y="490"/>
      <point x="781" y="490" type="curve" smooth="yes"/>
      <point x="759" y="490"/>
      <point x="736" y="507"/>
      <point x="736" y="540" type="curve" smooth="yes"/>
      <point x="736" y="726" type="line" smooth="yes"/>
      <point x="736" y="750"/>
      <point x="758" y="772"/>
      <point x="782" y="772" type="curve" smooth="yes"/>
    </contour>
  </outline>
</glyph>
<glyph name="circumflex" format="1">
  <advance width="1240"/>
  <unicode hex="02c6"/>
  <outline>
    <contour>
      <point x="699" y="1320" type="curve" smooth="yes"/>
      <point x="712" y="1320"/>
      <point x="726" y="1316"/>
      <point x="731" y="1308" type="curve" smooth="yes"/>
      <point x="915" y="1025" type="line" smooth="no"/>
      <point x="920" y="1020"/>
      <point x="922" y="1013"/>
      <point x="922" y="1008" type="curve" smooth="yes"/>
      <point x="922" y="992"/>
      <point x="903" y="979"/>
      <point x="885" y="979" type="curve" smooth="yes"/>
      <point x="877" y="979"/>
      <point x="867" y="980"/>
      <point x="862" y="988" type="curve" smooth="yes"/>
      <point x="699" y="1197" type="line" smooth="no"/>
      <point x="537" y="988" type="line" smooth="yes"/>
      <point x="532" y="980"/>
      <point x="522" y="979"/>
      <point x="514" y="979" type="curve" smooth="yes"/>
      <point x="496" y="979"/>
      <point x="477" y="992"/>
      <point x="477" y="1008" type="curve" smooth="yes"/>
      <point x="477" y="1013"/>
      <point x="479" y="1020"/>
      <point x="484" y="1025" type="curve" smooth="no"/>
      <point x="668" y="1308" type="line" smooth="yes"/>
      <point x="673" y="1316"/>
      <point x="686" y="1320"/>
    </contour>
  </outline>
</glyph>
<glyph name="breve" format="1">
  <advance width="1240"/>
  <unicode hex="02d8"/>
  <outline>
    <contour>
      <point x="697" y="1028" type="curve" smooth="yes"/>
      <point x="757" y="1028"/>
      <point x="816" y="1064"/>
      <point x="827" y="1132" type="curve" smooth="no"/>
      <point x="831" y="1144"/>
      <point x="840" y="1148"/>
      <point x="850" y="1148" type="curve" smooth="yes"/>
      <point x="866" y="1148"/>
      <point x="884" y="1136"/>
      <point x="884" y="1124" type="curve" smooth="yes"/>
      <point x="884" y="999"/>
      <point x="758" y="970"/>
      <point x="697" y="970" type="curve" smooth="yes"/>
      <point x="636" y="970"/>
      <point x="510" y="999"/>
      <point x="510" y="1124" type="curve" smooth="yes"/>
      <point x="510" y="1136"/>
      <point x="528" y="1148"/>
      <point x="544" y="1148" type="curve" smooth="yes"/>
      <point x="554" y="1148"/>
      <point x="563" y="1144"/>
      <point x="567" y="1132" type="curve" smooth="no"/>
      <point x="578" y="1064"/>
      <point x="637" y="1028"/>
    </contour>
  </outline>
</glyph>
<glyph name="dotaccent" format="1">
  <advance width="1240"/>
  <unicode hex="02d9"/>
  <outline>
    <contour>
      <point x="644" y="811" type="curve" smooth="yes"/>
      <point x="690" y="811"/>
      <point x="726" y="774"/>
      <point x="726" y="728" type="curve" smooth="yes"/>
      <point x="726" y="682"/>
      <point x="690" y="646"/>
      <point x="644" y="646" type="curve" smooth="yes"/>
      <point x="598" y="646"/>
      <point x="561" y="682"/>
      <point x="561" y="728" type="curve" smooth="yes"/>
      <point x="561" y="774"/>
      <point x="598" y="811"/>
    </contour>
  </outline>
</glyph>
<glyph name="ring" format="1">
  <advance width="1240"/>
  <unicode hex="02da"/>
  <outline>
    <contour>
      <point x="704" y="1074" type="curve" smooth="yes"/>
      <point x="768" y="1074"/>
      <point x="798" y="1122"/>
      <point x="798" y="1178" type="curve" smooth="yes"/>
      <point x="798" y="1234"/>
      <point x="766" y="1283"/>
      <point x="701" y="1283" type="curve" smooth="yes"/>
      <point x="635" y="1283"/>
      <point x="604" y="1234"/>
      <point x="604" y="1178" type="curve" smooth="yes"/>
      <point x="604" y="1123"/>
      <point x="641" y="1074"/>
    </contour>
    <contour>
      <point x="702" y="1349" type="curve" smooth="yes"/>
      <point x="815" y="1349"/>
      <point x="871" y="1265"/>
      <point x="871" y="1180" type="curve" smooth="yes"/>
      <point x="871" y="1095"/>
      <point x="812" y="1009"/>
      <point x="699" y="1009" type="curve" smooth="yes"/>
      <point x="586" y="1009"/>
      <point x="528" y="1093"/>
      <point x="528" y="1177" type="curve" smooth="yes"/>
      <point x="528" y="1263"/>
      <point x="588" y="1349"/>
    </contour>
  </outline>
</glyph>
<glyph name="ogonek" format="1">
  <advance width="1240"/>
  <unicode hex="02db"/>
  <outline>
    <contour>
      <point x="601" y="-268" type="curve" smooth="yes"/>
      <point x="601" y="-312"/>
      <point x="633" y="-316"/>
      <point x="665" y="-316" type="curve" smooth="yes"/>
      <point x="688" y="-316" type="line" smooth="yes"/>
      <point x="710" y="-316"/>
      <point x="737" y="-311"/>
      <point x="737" y="-330" type="curve" smooth="yes"/>
      <point x="737" y="-365"/>
      <point x="679" y="-407"/>
      <point x="615" y="-407" type="curve" smooth="yes"/>
      <point x="552" y="-407"/>
      <point x="503" y="-378"/>
      <point x="503" y="-297" type="curve" smooth="yes"/>
      <point x="503" y="-236"/>
      <point x="564" y="-74"/>
      <point x="678" y="20" type="curve" smooth="no"/>
      <point x="719" y="20" type="line" smooth="yes"/>
      <point x="723" y="20"/>
      <point x="601" y="-196"/>
    </contour>
  </outline>
</glyph>
<glyph name="hungarumlaut" format="1">
  <advance width="1240"/>
  <unicode hex="02dd"/>
  <outline>
    <contour>
      <point x="926" y="1144" type="curve" smooth="yes"/>
      <point x="604" y="910" type="line" smooth="yes"/>
      <point x="601" y="907"/>
      <point x="597" y="906"/>
      <point x="593" y="906" type="curve" smooth="yes"/>
      <point x="581" y="906"/>
      <point x="570" y="916"/>
      <point x="570" y="928" type="curve" smooth="yes"/>
      <point x="570" y="933"/>
      <point x="571" y="938"/>
      <point x="576" y="943" type="curve" smooth="yes"/>
      <point x="847" y="1219" type="line" smooth="yes"/>
      <point x="857" y="1229"/>
      <point x="868" y="1233"/>
      <point x="879" y="1233" type="curve" smooth="yes"/>
      <point x="910" y="1233"/>
      <point x="940" y="1200"/>
      <point x="940" y="1172" type="curve" smooth="yes"/>
      <point x="940" y="1162"/>
      <point x="936" y="1151"/>
    </contour>
    <contour>
      <point x="616" y="1164" type="curve" smooth="no"/>
      <point x="334" y="910" type="line" smooth="yes"/>
      <point x="331" y="907"/>
      <point x="327" y="906"/>
      <point x="323" y="906" type="curve" smooth="yes"/>
      <point x="311" y="906"/>
      <point x="300" y="916"/>
      <point x="300" y="928" type="curve" smooth="yes"/>
      <point x="300" y="933"/>
      <point x="301" y="938"/>
      <point x="306" y="943" type="curve" smooth="yes"/>
      <point x="537" y="1239" type="line" smooth="no"/>
      <point x="547" y="1249"/>
      <point x="558" y="1253"/>
      <point x="569" y="1253" type="curve" smooth="yes"/>
      <point x="600" y="1253"/>
      <point x="630" y="1220"/>
      <point x="630" y="1192" type="curve" smooth="yes"/>
      <point x="630" y="1182"/>
      <point x="626" y="1171"/>
    </contour>
  </outline>
</glyph>
<glyph name="quoteleft" format="1">
  <advance width="1240"/>
  <unicode hex="2018"/>
  <outline>
    <contour>
      <point x="633" y="774" type="curve" smooth="yes"/>
      <point x="573" y="774"/>
      <point x="521" y="815"/>
      <point x="521" y="895" type="curve" smooth="yes"/>
      <point x="521" y="1011"/>
      <point x="624" y="1144"/>
      <point x="706" y="1185" type="curve" smooth="yes"/>
      <point x="709" y="1187"/>
      <point x="713" y="1187"/>
      <point x="716" y="1187" type="curve" smooth="yes"/>
      <point x="730" y="1187"/>
      <point x="744" y="1174"/>
      <point x="744" y="1160" type="curve" smooth="yes"/>
      <point x="744" y="1153"/>
      <point x="740" y="1145"/>
      <point x="732" y="1139" type="curve" smooth="yes"/>
      <point x="689" y="1108"/>
      <point x="623" y="1024"/>
      <point x="623" y="962" type="curve" smooth="no"/>
      <point x="682" y="962"/>
      <point x="731" y="934"/>
      <point x="731" y="869" type="curve" smooth="yes"/>
      <point x="731" y="805"/>
      <point x="680" y="774"/>
    </contour>
  </outline>
</glyph>
<glyph name="quotesinglbase" format="1">
  <advance width="1240"/>
  <unicode hex="201a"/>
  <outline>
    <contour>
      <point x="616" y="180" type="curve" smooth="yes"/>
      <point x="676" y="180"/>
      <point x="728" y="139"/>
      <point x="728" y="59" type="curve" smooth="yes"/>
      <point x="728" y="-57"/>
      <point x="625" y="-167"/>
      <point x="543" y="-208" type="curve" smooth="yes"/>
      <point x="540" y="-210"/>
      <point x="536" y="-210"/>
      <point x="533" y="-210" type="curve" smooth="yes"/>
      <point x="519" y="-210"/>
      <point x="505" y="-197"/>
      <point x="505" y="-183" type="curve" smooth="yes"/>
      <point x="505" y="-176"/>
      <point x="509" y="-168"/>
      <point x="517" y="-162" type="curve" smooth="yes"/>
      <point x="560" y="-131"/>
      <point x="626" y="-70"/>
      <point x="626" y="-8" type="curve" smooth="no"/>
      <point x="567" y="-8"/>
      <point x="518" y="20"/>
      <point x="518" y="85" type="curve" smooth="yes"/>
      <point x="518" y="149"/>
      <point x="569" y="180"/>
    </contour>
  </outline>
</glyph>
<glyph name="quotedblbase" format="1">
  <advance width="1240"/>
  <unicode hex="201e"/>
  <outline>
    <contour>
      <point x="535" y="-214" type="line" smooth="yes"/>
      <point x="534" y="-228"/>
      <point x="522" y="-234"/>
      <point x="510" y="-234" type="curve" smooth="yes"/>
      <point x="498" y="-234"/>
      <point x="487" y="-228"/>
      <point x="486" y="-214" type="curve" smooth="yes"/>
      <point x="454" y="182" type="line" smooth="yes"/>
      <point x="451" y="219"/>
      <point x="481" y="237"/>
      <point x="511" y="237" type="curve" smooth="yes"/>
      <point x="540" y="237"/>
      <point x="569" y="220"/>
      <point x="569" y="187" type="curve" smooth="yes"/>
      <point x="569" y="181" type="line" smooth="yes"/>
    </contour>
    <contour>
      <point x="752" y="-214" type="line" smooth="yes"/>
      <point x="751" y="-228"/>
      <point x="740" y="-234"/>
      <point x="728" y="-234" type="curve" smooth="yes"/>
      <point x="716" y="-234"/>
      <point x="704" y="-228"/>
      <point x="703" y="-214" type="curve" smooth="yes"/>
      <point x="671" y="182" type="line" smooth="yes"/>
      <point x="668" y="219"/>
      <point x="698" y="237"/>
      <point x="728" y="237" type="curve" smooth="yes"/>
      <point x="757" y="237"/>
      <point x="786" y="220"/>
      <point x="786" y="187" type="curve" smooth="yes"/>
      <point x="786" y="181" type="line" smooth="yes"/>
    </contour>
  </outline>
</glyph>
<glyph name="guilsinglleft" format="1">
  <advance width="1240"/>
  <unicode hex="2039"/>
  <outline>
    <contour>
      <point x="854" y="216" type="curve" smooth="yes"/>
      <point x="250" y="475" type="line" smooth="yes"/>
      <point x="222" y="487"/>
      <point x="207" y="508"/>
      <point x="207" y="530" type="curve" smooth="yes"/>
      <point x="207" y="551"/>
      <point x="221" y="573"/>
      <point x="250" y="585" type="curve" smooth="yes"/>
      <point x="844" y="841" type="line" smooth="yes"/>
      <point x="851" y="844"/>
      <point x="858" y="845"/>
      <point x="864" y="845" type="curve" smooth="yes"/>
      <point x="888" y="845"/>
      <point x="907" y="826"/>
      <point x="907" y="805" type="curve" smooth="yes"/>
      <point x="907" y="790"/>
      <point x="898" y="775"/>
      <point x="874" y="765" type="curve" smooth="yes"/>
      <point x="326" y="531" type="line" smooth="no"/>
      <point x="883" y="297" type="line" smooth="yes"/>
      <point x="912" y="284"/>
      <point x="925" y="265"/>
      <point x="925" y="248" type="curve" smooth="yes"/>
      <point x="925" y="228"/>
      <point x="908" y="210"/>
      <point x="882" y="210" type="curve" smooth="yes"/>
      <point x="873" y="210"/>
      <point x="864" y="212"/>
    </contour>
  </outline>
</glyph>
<glyph name="foundryicon" format="1">
  <advance width="1240"/>
  <outline>
    <contour>
      <point x="679" y="256" type="curve" smooth="no"/>
      <point x="536" y="138"/>
      <point x="462" y="79"/>
      <point x="457" y="79" type="curve" smooth="yes"/>
      <point x="441" y="79"/>
      <point x="433" y="84"/>
      <point x="433" y="96" type="curve" smooth="yes"/>
      <point x="433" y="106"/>
      <point x="440" y="117"/>
      <point x="443" y="127" type="curve" smooth="yes"/>
      <point x="524" y="370" type="line" smooth="no"/>
      <point x="385" y="480"/>
      <point x="312" y="537"/>
      <point x="302" y="546" type="curve" smooth="yes"/>
      <point x="292" y="554"/>
      <point x="287" y="564"/>
      <point x="287" y="574" type="curve" smooth="yes"/>
      <point x="287" y="588"/>
      <point x="296" y="594"/>
      <point x="314" y="594" type="curve" smooth="yes"/>
      <point x="315" y="594"/>
      <point x="409" y="588"/>
      <point x="595" y="574" type="curve" smooth="no"/>
      <point x="642" y="688"/>
      <point x="669" y="755"/>
      <point x="677" y="775" type="curve" smooth="no"/>
      <point x="691" y="816"/>
      <point x="705" y="844"/>
      <point x="730" y="844" type="curve" smooth="yes"/>
      <point x="743" y="844"/>
      <point x="763" y="822"/>
      <point x="763" y="811" type="curve" smooth="no"/>
      <point x="806" y="579" type="line" smooth="no"/>
      <point x="1075" y="579" type="line" smooth="yes"/>
      <point x="1100" y="579"/>
      <point x="1112" y="569"/>
      <point x="1112" y="551" type="curve" smooth="yes"/>
      <point x="1112" y="548"/>
      <point x="1107" y="543"/>
      <point x="1098" y="537" type="curve" smooth="yes"/>
      <point x="1089" y="531"/>
      <point x="1016" y="471"/>
      <point x="877" y="357" type="curve" smooth="no"/>
      <point x="921" y="177"/>
      <point x="941" y="83"/>
      <point x="941" y="72" type="curve" smooth="yes"/>
      <point x="941" y="58"/>
      <point x="932" y="49"/>
      <point x="918" y="49" type="curve" smooth="yes"/>
      <point x="910" y="49"/>
      <point x="831" y="118"/>
    </contour>
  </outline>
</glyph>
